<svg width="100" height="41" viewBox="0 0 100 41" fill="none" xmlns="http://www.w3.org/2000/svg">
<g clip-path="url(#clip0_120_34)">
<path d="M16.1104 6.83835C16.3888 6.78582 16.6387 6.77305 16.86 6.80005C17.4921 6.25176 18.1261 5.77553 18.7621 5.37138C18.9778 5.2338 19.195 5.10266 19.4138 4.97796C19.0708 4.7939 18.7835 4.67427 18.5518 4.61908C18.223 4.53884 17.7276 4.45734 17.0656 4.37459C16.4058 4.29184 15.738 4.29309 15.0621 4.37835C14.3863 4.46612 13.8541 4.56517 13.4656 4.67551C13.0771 4.78584 12.6989 4.9012 12.3311 5.02156C11.9633 5.14193 11.5886 5.32248 11.207 5.56321C10.8276 5.80645 10.4759 6.04217 10.1518 6.27037C9.82764 6.50107 9.38397 6.8559 8.82075 7.33486C8.25753 7.81132 7.76902 8.21505 7.35523 8.54606C6.93914 8.87456 6.53454 9.2971 6.14144 9.81367C5.74604 10.3277 5.38052 10.8243 5.04489 11.3032C4.70925 11.7797 4.38512 12.3313 4.07247 12.9583C3.75983 13.5852 3.49661 14.2773 3.28282 15.0346C3.06902 15.7894 2.88397 16.6633 2.72764 17.6563C2.57132 18.6494 2.52764 19.6198 2.59661 20.5677C2.66328 21.5156 2.78167 22.4121 2.95178 23.2572C3.1242 24.1022 3.35293 24.9398 3.63799 25.7698C3.92305 26.5998 4.27132 27.3948 4.68282 28.1546C5.09431 28.9144 5.59891 29.6855 6.19661 30.4679C6.79431 31.2503 7.35063 31.9474 7.86558 32.5593C8.38052 33.1711 8.93454 33.7366 9.52764 34.2557C10.1207 34.7748 10.7265 35.2261 11.3449 35.6098C11.9633 35.9935 12.5495 36.3069 13.1035 36.5502C13.6575 36.7934 14.2299 37.0053 14.8207 37.1859C15.4116 37.3689 16.1093 37.4667 16.9139 37.4793C17.7184 37.4943 18.4886 37.463 19.2242 37.3852C19.9575 37.31 20.6874 37.1357 21.4139 36.8624C22.1426 36.5865 22.8541 36.1878 23.5483 35.6662C24.2426 35.1447 24.9334 34.5528 25.6207 33.8908C26.3058 33.2288 26.946 32.4803 27.5414 31.6452C28.1368 30.8077 28.792 29.7758 29.507 28.5495C30.2219 27.3233 30.8368 26.1472 31.3518 25.0213C31.8667 23.8928 32.2771 22.7318 32.5828 21.5382C32.8886 20.3445 33.1058 19.1521 33.2345 17.961C33.3633 16.7674 33.3506 15.5487 33.1966 14.3049C33.0449 13.0611 32.7564 11.8574 32.3311 10.6939C31.9058 9.53282 31.2759 8.38181 30.4414 7.24083C29.607 6.10236 28.7334 5.2297 27.8207 4.62285C26.9104 4.01349 25.9368 3.65113 24.9001 3.53578C23.8633 3.41792 22.8242 3.53954 21.7828 3.90064C20.9736 4.17991 20.1839 4.53901 19.4138 4.97796C19.5539 5.0532 19.7034 5.1392 19.8621 5.23597C20.4093 5.56948 20.8667 5.95817 21.2345 6.40202C21.3244 6.51119 21.4059 6.61558 21.4788 6.71519C21.6943 6.61451 21.906 6.52266 22.1138 6.43964C22.8633 6.14123 23.5828 6.00456 24.2725 6.02964C24.9621 6.05471 25.6368 6.27162 26.2966 6.68037C26.9587 7.08912 27.6345 7.74863 28.3242 8.6589C29.0138 9.56667 29.5403 10.4932 29.9035 11.4386C30.2644 12.384 30.5173 13.3607 30.6621 14.3688C30.807 15.3744 30.8265 16.4013 30.7207 17.4495C30.615 18.4976 30.4391 19.5346 30.1932 20.5602C29.9472 21.5858 29.5897 22.619 29.1207 23.6596C28.6518 24.7003 28.0817 25.8012 27.4104 26.9622C26.7414 28.1232 26.1644 29.0573 25.6794 29.7645C25.192 30.4742 24.6414 31.1287 24.0276 31.728C23.4138 32.3273 22.8587 32.8313 22.3621 33.2401C21.8656 33.6488 21.3587 33.9635 20.8414 34.1842C20.3196 34.4049 19.7345 34.5503 19.0863 34.6206C18.438 34.6908 17.8219 34.7346 17.238 34.7522C16.6564 34.7698 16.1161 34.7046 15.6173 34.5566C15.1207 34.4061 14.6472 34.2356 14.1966 34.045C13.7437 33.852 13.2644 33.6037 12.7587 33.3003C12.2552 32.9969 11.7564 32.6345 11.2621 32.2132C10.7679 31.7944 10.2771 31.2942 9.78971 30.7124C9.30236 30.1306 8.80006 29.5075 8.28282 28.8429C7.76787 28.1759 7.33799 27.5365 6.99316 26.9246C6.64833 26.3127 6.35178 25.6557 6.10351 24.9536C5.85523 24.2514 5.65408 23.5368 5.50006 22.8095C5.34604 22.0848 5.23109 21.3664 5.15523 20.6542C5.07937 19.9446 5.10695 19.1521 5.23799 18.277C5.36902 17.4018 5.50925 16.6708 5.65868 16.084C5.8104 15.4972 6.00236 14.9569 6.23454 14.4628C6.46902 13.9663 6.74948 13.4849 7.07592 13.0184C7.40006 12.552 7.67822 12.1445 7.9104 11.796C8.14259 11.4474 8.47477 11.1001 8.90695 10.754C9.33914 10.408 9.8058 10.018 10.307 9.58422C10.8081 9.1504 11.3047 8.74918 11.7966 8.38055C12.2909 8.00942 12.7047 7.76743 13.038 7.65459C13.369 7.54175 13.6978 7.43517 14.0242 7.33486C14.3529 7.23456 14.6759 7.14679 14.9932 7.07156C15.3104 6.99383 15.6828 6.91609 16.1104 6.83835Z" fill="white"/>
<path d="M19.6238 7.7405C19.5342 7.6709 19.439 7.60214 19.338 7.53422C19.0621 7.34866 18.7081 7.21826 18.2759 7.14303C17.8437 7.0678 17.4805 6.97878 17.1863 6.87597C17.0854 6.8396 16.9767 6.81429 16.86 6.80005C16.5234 7.09204 16.1873 7.40447 15.8518 7.73734C14.8863 8.69025 13.9978 9.75224 13.1863 10.9233C12.3771 12.0919 11.6219 13.5501 10.9207 15.2979C10.9207 15.2979 10.5 16.5 11 17C11.5 17.5 12.2449 16.2796 12.2449 16.2796C13.1368 14.7851 13.9633 13.5225 14.7242 12.4918C15.4874 11.4612 16.3001 10.5321 17.1621 9.70459C17.9922 8.91229 18.8128 8.25759 19.6238 7.7405Z" fill="white"/>
<path d="M18.2759 7.14303C18.7081 7.21826 19.0621 7.34866 19.338 7.53422C19.439 7.60214 19.5342 7.6709 19.6238 7.7405C19.6573 7.71915 19.6907 7.69804 19.7242 7.67716C20.3348 7.29706 20.9197 6.97641 21.4788 6.71519C21.4059 6.61558 21.3244 6.51119 21.2345 6.40202C20.8667 5.95817 20.4093 5.56948 19.8621 5.23597C19.7034 5.1392 19.5539 5.0532 19.4138 4.97796C19.195 5.10266 18.9778 5.2338 18.7621 5.37138C18.1261 5.77553 17.4921 6.25176 16.86 6.80005C16.9767 6.81429 17.0854 6.8396 17.1863 6.87597C17.4805 6.97878 17.8437 7.0678 18.2759 7.14303Z" fill="white"/>
<path d="M20.038 8.10973C20.2265 8.30783 20.423 8.53101 20.6276 8.77927C20.6276 8.77927 21.0896 9.5 21.5 9.5C21.9104 9.5 21.8391 9.00746 21.8345 8.96734C21.8299 8.92722 21.8633 8.74291 21.9345 8.41441C22.0058 8.0859 21.9978 7.77997 21.9104 7.49661C21.8463 7.28105 21.7024 7.02058 21.4788 6.71519C20.9197 6.97641 20.3348 7.29706 19.7242 7.67716C19.6907 7.69804 19.6573 7.71915 19.6238 7.7405C19.779 7.86105 19.917 7.98413 20.038 8.10973Z" fill="white"/>
<path d="M37.7721 25.1673C37.7721 25.1673 37.756 25.4005 37.7238 25.8669C37.6893 26.3359 37.6595 26.781 37.6342 27.2023C37.6112 27.6235 37.5675 28.1564 37.5031 28.8009C37.4411 29.4479 37.3641 30.0284 37.2721 30.5424C37.1801 31.059 37.1227 31.5091 37.0997 31.8928C37.0767 32.2765 37.0238 32.6627 36.9411 33.0513C36.8583 33.44 36.8031 33.8036 36.7755 34.1422C36.748 34.4782 36.7204 34.6939 36.6928 34.7891C36.6652 34.8844 36.6273 34.9747 36.579 35.06C36.533 35.1452 36.4767 35.2242 36.41 35.2969C36.3457 35.3672 36.2744 35.4273 36.1962 35.4775C36.1181 35.5302 36.0353 35.5703 35.948 35.5979C35.8606 35.628 35.7709 35.6455 35.679 35.6505C35.587 35.6555 35.4962 35.6493 35.4066 35.6317C35.3169 35.6142 35.2296 35.5841 35.1445 35.5414C35.0618 35.5013 34.9847 35.4499 34.9135 35.3872C34.8422 35.3245 34.7778 35.2543 34.7204 35.1766C34.6652 35.0963 34.6192 35.0111 34.5824 34.9208C34.5434 34.828 34.5158 34.7327 34.4997 34.6349C34.4836 34.5371 34.479 34.4381 34.4859 34.3378C34.4905 34.2375 34.5709 33.9992 34.7273 33.6231C34.8813 33.2444 35.0801 32.8294 35.3238 32.378C35.5675 31.9267 35.8307 31.37 36.1135 30.708C36.3962 30.0484 36.7664 29.2059 37.2238 28.1802C37.679 27.1546 38.0985 26.1491 38.4824 25.1635C38.8641 24.178 39.2709 23.1449 39.7031 22.0641C40.1353 20.9808 40.5755 19.885 41.0238 18.7766C41.4698 17.6682 41.9204 16.5535 42.3755 15.4326C42.8284 14.3117 43.2916 13.2798 43.7652 12.3369C44.2388 11.3916 44.679 10.5691 45.0859 9.86942C45.4905 9.16978 45.8158 8.63064 46.0618 8.25199C46.3054 7.87333 46.6618 7.47587 47.1307 7.0596C47.602 6.64333 48.0572 6.55306 48.4962 6.78878C48.9353 7.02199 49.2227 7.39061 49.3583 7.89465C49.4939 8.39618 49.502 9.10709 49.3824 10.0274C49.2606 10.9452 49.1434 11.8592 49.0307 12.7695C48.9181 13.6773 48.7687 14.5976 48.5824 15.5304C48.3962 16.4633 48.1974 17.3811 47.9859 18.2838C47.7767 19.1866 47.5985 20.0317 47.4514 20.8191C47.3043 21.6065 47.1641 22.291 47.0307 22.8728C46.8974 23.4546 46.8089 23.9448 46.7652 24.3435C46.7238 24.7423 46.6744 25.0983 46.6169 25.4118C46.5572 25.7253 46.3503 25.7466 45.9962 25.4757C45.6399 25.2074 45.6319 24.7535 45.9721 24.1141C46.3146 23.4721 46.7537 22.7763 47.2893 22.0265C47.825 21.2742 48.3273 20.4705 48.7962 19.6154C49.2652 18.7628 49.733 17.865 50.1997 16.9222C50.6687 15.9818 51.1376 15.0527 51.6066 14.1349C52.0778 13.2171 52.5503 12.3382 53.0238 11.4981C53.4974 10.6606 53.9365 9.91456 54.3411 9.26006C54.748 8.60306 55.0629 8.07645 55.2859 7.68024C55.5089 7.28404 55.7031 6.9618 55.8687 6.71355C56.0342 6.46529 56.1514 6.29477 56.2204 6.20199C56.2893 6.1067 56.3664 6.02269 56.4514 5.94997C56.5388 5.87725 56.633 5.81706 56.7342 5.76942C56.833 5.72177 56.9365 5.68667 57.0445 5.6641C57.1526 5.64404 57.2618 5.63777 57.3721 5.64529C57.4801 5.65532 57.587 5.67789 57.6928 5.713C57.7962 5.75061 57.8951 5.80076 57.9893 5.86346C58.0813 5.92615 58.1664 5.99887 58.2445 6.08162C58.3204 6.16688 58.387 6.26092 58.4445 6.36373C58.4997 6.46654 58.5434 6.57563 58.5755 6.69098C58.6077 6.80633 58.6261 6.92293 58.6307 7.04079C58.6376 7.16116 58.6307 7.28027 58.61 7.39813C58.5893 7.51599 58.556 7.62884 58.51 7.73667C58.4641 7.84449 58.4801 7.71786 58.5583 7.35676C58.6388 6.99816 58.6928 7.18498 58.7204 7.91722C58.748 8.64945 58.687 9.50079 58.5376 10.4713C58.3882 11.4417 58.2491 12.4046 58.1204 13.3601C57.9939 14.3155 57.8342 15.2696 57.6411 16.2225C57.448 17.178 57.2801 18.0594 57.1376 18.8669C56.9951 19.6743 56.8595 20.4341 56.7307 21.1463C56.602 21.8585 56.5135 22.4515 56.4652 22.9255C56.4169 23.4019 56.41 23.8044 56.4445 24.1329C56.479 24.4614 56.3859 24.8676 56.1652 25.3516C55.9445 25.8381 55.8491 26.1039 55.879 26.1491C55.9066 26.1917 55.9273 26.2381 55.9411 26.2882C55.9549 26.3409 55.9606 26.3935 55.9583 26.4462C55.956 26.4989 55.9468 26.5503 55.9307 26.6004C55.9123 26.6506 55.8882 26.6957 55.8583 26.7358C55.8261 26.7785 55.7893 26.8136 55.748 26.8412C55.7066 26.8687 55.6629 26.8888 55.6169 26.9013C55.5687 26.9139 55.5204 26.9176 55.4721 26.9126C55.4238 26.9076 55.3767 26.8951 55.3307 26.875C55.287 26.8524 55.2468 26.8236 55.21 26.7885C55.1732 26.7509 55.1434 26.7095 55.1204 26.6644C55.0974 26.6167 55.0813 26.5666 55.0721 26.5139C55.0629 26.4613 55.0618 26.4086 55.0687 26.3559C55.0755 26.3033 55.0905 26.2531 55.1135 26.2055C55.1365 26.1603 55.1652 26.119 55.1997 26.0813C55.2342 26.0437 55.2732 26.0136 55.3169 25.9911C55.3606 25.966 55.4066 25.9509 55.4549 25.9459C55.5031 25.9384 55.5514 25.9397 55.5997 25.9497C55.648 25.9597 55.6928 25.9785 55.7342 26.0061C55.7778 26.0337 55.8158 26.0676 55.848 26.1077C55.8801 26.1478 55.9054 26.1917 55.9238 26.2393C55.9422 26.2895 55.9537 26.3409 55.9583 26.3935C55.9606 26.4462 55.956 26.4989 55.9445 26.5515C55.933 26.6017 55.9135 26.6493 55.8859 26.6945C55.8583 26.7396 55.8261 26.7785 55.7893 26.8111C55.7503 26.8437 55.7077 26.8687 55.6618 26.8863C55.6158 26.9039 55.5687 26.9139 55.5204 26.9164C55.4721 26.9164 55.4238 26.9089 55.3755 26.8938C55.3296 26.8763 55.287 26.8524 55.248 26.8224C55.2089 26.7898 55.1893 26.7735 55.1893 26.7735C55.1893 26.7735 54.9537 26.4675 54.4824 25.8557C54.0135 25.2488 53.7537 24.672 53.7031 24.1254C53.6503 23.5812 53.6537 23.0295 53.7135 22.4703C53.7732 21.9086 53.8675 21.2742 53.9962 20.567C54.1227 19.8574 54.2606 19.085 54.41 18.25C54.5572 17.4124 54.7215 16.5548 54.9031 15.6771C55.0824 14.7969 55.2376 13.8641 55.3687 12.8786C55.4997 11.8956 55.6882 10.8512 55.9342 9.74529C56.1801 8.63942 56.2721 7.7956 56.21 7.21382C56.148 6.63205 56.1514 6.29477 56.2204 6.20199C56.2893 6.1067 56.3664 6.02269 56.4514 5.94997C56.5388 5.87725 56.633 5.81706 56.7342 5.76942C56.833 5.72177 56.9365 5.68667 57.0445 5.6641C57.1526 5.64404 57.2618 5.63777 57.3721 5.64529C57.4801 5.65532 57.587 5.67789 57.6928 5.713C57.7962 5.75061 57.8951 5.80076 57.9893 5.86346C58.0813 5.92615 58.1664 5.99887 58.2445 6.08162C58.3204 6.16688 58.387 6.26092 58.4445 6.36373C58.4997 6.46654 58.5434 6.57563 58.5755 6.69098C58.6077 6.80633 58.6261 6.92293 58.6307 7.04079C58.6376 7.16116 58.6307 7.28027 58.61 7.39813C58.5893 7.51349 58.556 7.62633 58.51 7.73667C58.4641 7.84449 58.3583 8.02254 58.1928 8.27079C58.0273 8.51905 57.8227 8.86009 57.579 9.29391C57.333 9.72774 57.0181 10.2543 56.6342 10.8737C56.2503 11.4931 55.8319 12.204 55.379 13.0065C54.9284 13.8089 54.4709 14.664 54.0066 15.5718C53.5445 16.4796 53.0709 17.425 52.5859 18.408C52.0985 19.3884 51.5905 20.3564 51.0618 21.3118C50.533 22.2672 49.9847 23.1411 49.4169 23.9335C48.8491 24.7235 48.3629 25.3704 47.9583 25.8745C47.5537 26.376 47.1664 26.7872 46.7962 27.1082C46.4238 27.4292 46.1008 27.5884 45.8273 27.5859C45.5537 27.5834 45.1778 27.3678 44.6997 26.939C44.2215 26.5127 43.9732 26.1478 43.9549 25.8444C43.9365 25.5435 43.9411 25.2526 43.9687 24.9717C43.9962 24.6883 44.0457 24.2921 44.1169 23.7831C44.1859 23.2715 44.2859 22.7474 44.4169 22.2108C44.548 21.6717 44.6951 20.9871 44.8583 20.157C45.0192 19.327 45.2043 18.4782 45.4135 17.6105C45.6227 16.7429 45.8158 15.8802 45.9928 15.0226C46.1721 14.165 46.3215 13.2723 46.4411 12.3445C46.5606 11.4141 46.7181 10.4863 46.9135 9.56098C47.1089 8.63566 47.4261 8.36107 47.8652 8.73722C48.302 9.11336 48.41 9.4707 48.1893 9.80923C47.9687 10.1478 47.6687 10.6418 47.2893 11.2913C46.9077 11.9407 46.4962 12.7018 46.0549 13.5745C45.6135 14.4471 45.1652 15.4414 44.71 16.5573C44.2549 17.6757 43.8031 18.7879 43.3549 19.8937C42.9066 20.9996 42.4664 22.0892 42.0342 23.1624C41.6043 24.2332 41.1859 25.2839 40.779 26.3146C40.3744 27.3452 39.9411 28.3658 39.479 29.3764C39.0169 30.387 38.6215 31.2584 38.2928 31.9906C37.9641 32.7254 37.6227 33.3523 37.2687 33.8713C36.9123 34.3879 36.7204 34.6939 36.6928 34.7891C36.6652 34.8844 36.6273 34.9747 36.579 35.06C36.533 35.1452 36.4767 35.2242 36.41 35.2969C36.3457 35.3672 36.2744 35.4273 36.1962 35.4775C36.1181 35.5302 36.0353 35.5703 35.948 35.5979C35.8606 35.628 35.7709 35.6455 35.679 35.6505C35.587 35.6555 35.4962 35.6493 35.4066 35.6317C35.3169 35.6142 35.2296 35.5841 35.1445 35.5414C35.0618 35.5013 34.9847 35.4499 34.9135 35.3872C34.8422 35.3245 34.7778 35.2543 34.7204 35.1766C34.6652 35.0963 34.6192 35.0111 34.5824 34.9208C34.5434 34.828 34.5158 34.7327 34.4997 34.6349C34.4836 34.5371 34.479 34.4381 34.4859 34.3378C34.4905 34.2375 34.5307 33.9867 34.6066 33.5855C34.6824 33.1817 34.7641 32.8495 34.8514 32.5887C34.9388 32.3304 35.0158 31.9705 35.0824 31.5091C35.1468 31.0477 35.2376 30.5888 35.3549 30.1324C35.4698 29.6786 35.5859 29.1407 35.7031 28.5188C35.8181 27.8994 35.9204 27.3276 36.01 26.8035C36.0974 26.2794 36.256 25.8193 36.4859 25.4231C36.7181 25.0269 36.8422 24.8087 36.8583 24.7686C36.8767 24.7285 36.8985 24.6921 36.9238 24.6595C36.9491 24.6244 36.9767 24.5943 37.0066 24.5692C37.0388 24.5442 37.0732 24.5228 37.11 24.5053C37.1468 24.4877 37.1847 24.4752 37.2238 24.4677C37.2652 24.4602 37.3043 24.4589 37.3411 24.4639C37.3801 24.4664 37.4192 24.4752 37.4583 24.4902C37.4951 24.5028 37.5307 24.5203 37.5652 24.5429C37.5997 24.568 37.6307 24.5956 37.6583 24.6257C37.6859 24.6583 37.71 24.6934 37.7307 24.731C37.7491 24.7686 37.7641 24.8087 37.7755 24.8513C37.787 24.8915 37.7939 24.9341 37.7962 24.9792C37.7962 25.0194 37.7928 25.0607 37.7859 25.1034C37.7767 25.146 37.7721 25.1673 37.7721 25.1673Z" fill="white"/>
<path d="M63.2414 21.1394C63.2414 21.1394 63.2598 21.399 63.2966 21.9181C63.3357 22.4397 63.3575 22.9412 63.3621 23.4226C63.3667 23.9041 63.3414 24.3843 63.2862 24.8633C63.2311 25.3423 63.1621 25.7974 63.0793 26.2287C62.9966 26.66 62.8713 27.1089 62.7035 27.5753C62.5311 28.0442 62.3621 28.5056 62.1966 28.9595C62.0334 29.4159 61.9357 29.7231 61.9035 29.8811C61.8713 30.0366 61.8242 30.1569 61.7621 30.2422C61.6977 30.33 61.6253 30.4077 61.5449 30.4754C61.4644 30.5431 61.3782 30.5983 61.2862 30.6409C61.1943 30.686 61.0977 30.7186 60.9966 30.7387C60.8977 30.7563 60.7977 30.7613 60.6966 30.7538C60.5954 30.7462 60.4966 30.7249 60.4 30.6898C60.3035 30.6572 60.2115 30.6121 60.1242 30.5544C60.0391 30.4967 59.9609 30.4278 59.8897 30.3475C59.8184 30.2698 59.7575 30.1833 59.7069 30.088C59.654 29.9927 59.6127 29.8924 59.5828 29.7871C59.5552 29.6792 59.5391 29.5701 59.5345 29.4598C59.5276 29.3495 59.5345 29.2404 59.5552 29.1326C59.5736 29.0247 59.6035 28.9207 59.6449 28.8204C59.6885 28.7201 59.8345 28.3527 60.0828 27.7182C60.3311 27.0863 60.592 26.4205 60.8655 25.7209C61.1414 25.0238 61.477 24.2589 61.8724 23.4264C62.2701 22.5939 62.6426 21.7363 62.9897 20.8536C63.3414 19.9709 63.7724 19.0556 64.2828 18.1077C64.7954 17.1623 65.3621 16.1981 65.9828 15.2151C66.6035 14.2321 67.1851 13.3783 67.7276 12.6536C68.2701 11.9289 68.7242 11.3408 69.0897 10.8894C69.4529 10.4356 69.7713 10.087 70.0449 9.84375C70.3184 9.598 70.577 9.40617 70.8207 9.26825C71.0644 9.13283 71.4403 9.09522 71.9483 9.1554C72.4586 9.21809 72.8598 9.38987 73.1517 9.67072C73.4437 9.95158 73.6483 10.3252 73.7655 10.7916C73.8805 11.2581 73.9207 11.8348 73.8862 12.5219C73.8518 13.209 73.8288 13.8748 73.8173 14.5193C73.8035 15.1637 73.7598 15.832 73.6862 16.5241C73.615 17.2162 73.492 17.9171 73.3173 18.6268C73.1449 19.3339 72.9598 20.0762 72.7621 20.8536C72.5644 21.6284 72.3897 22.293 72.238 22.8471C72.0862 23.4013 71.9449 23.9054 71.8138 24.3593C71.6828 24.8156 71.5552 25.2482 71.4311 25.657C71.3092 26.0682 71.2207 26.4857 71.1655 26.9095C71.1127 27.3358 71.077 27.628 71.0586 27.786C71.0403 27.9464 71.0184 28.0844 70.9931 28.1997C70.9678 28.3176 70.9299 28.4292 70.8793 28.5345C70.8288 28.6398 70.7667 28.7376 70.6931 28.8279C70.6219 28.9182 70.5414 28.9984 70.4517 29.0686C70.3598 29.1363 70.2632 29.1915 70.1621 29.2341C70.0586 29.2767 69.9529 29.3056 69.8449 29.3206C69.7368 29.3357 69.6276 29.3369 69.5173 29.3244C69.4092 29.3093 69.3035 29.2818 69.2 29.2416C69.0966 29.199 69 29.1438 68.9104 29.0761C68.8184 29.0084 68.7368 28.9294 68.6655 28.8392C68.592 28.7514 68.5288 28.6549 68.4759 28.5495C68.4253 28.4442 68.3862 28.3326 68.3586 28.2148C68.3334 28.0994 68.3196 27.9815 68.3173 27.8612C68.3173 27.7433 68.5207 27.4712 68.9276 27.0449C69.3345 26.6186 69.5437 26.3792 69.5552 26.3265C69.5667 26.2738 69.5862 26.2262 69.6138 26.1836C69.6414 26.1384 69.6747 26.0996 69.7138 26.067C69.7506 26.0344 69.792 26.0093 69.838 25.9917C69.8839 25.9742 69.9322 25.9641 69.9828 25.9616C70.0311 25.9616 70.0782 25.9704 70.1242 25.988C70.1701 26.003 70.2127 26.0268 70.2517 26.0594C70.2931 26.0895 70.3276 26.1271 70.3552 26.1723C70.3828 26.2149 70.4035 26.2626 70.4173 26.3152C70.4311 26.3654 70.4368 26.4168 70.4345 26.4694C70.4322 26.5221 70.4219 26.5735 70.4035 26.6237C70.3874 26.6738 70.3632 26.7189 70.3311 26.7591C70.3012 26.8017 70.2655 26.8368 70.2242 26.8644C70.1828 26.892 70.138 26.912 70.0897 26.9246C70.0414 26.9371 69.9931 26.9409 69.9449 26.9359C69.8966 26.9308 69.8506 26.9171 69.8069 26.8945C69.7609 26.8744 69.7207 26.8456 69.6862 26.808C69.6495 26.7729 69.6196 26.7315 69.5966 26.6838C69.5736 26.6387 69.5575 26.5898 69.5483 26.5371C69.5391 26.4845 69.538 26.4318 69.5449 26.3792C69.5517 26.3265 69.5667 26.2763 69.5897 26.2287C69.6127 26.1811 69.6414 26.1384 69.6759 26.1008C69.7104 26.0632 69.7495 26.0331 69.7931 26.0105C69.8391 25.988 69.8862 25.9729 69.9345 25.9654C69.9828 25.9604 70.0311 25.9629 70.0793 25.9729C70.1253 25.983 70.1701 26.0018 70.2138 26.0293C70.2552 26.0569 70.292 26.0908 70.3242 26.1309C70.3563 26.171 70.3816 26.2149 70.4 26.2626C70.4184 26.3127 70.4299 26.3641 70.4345 26.4168C70.4368 26.4694 70.438 26.4958 70.438 26.4958C70.438 26.4958 70.5368 26.7515 70.7345 27.2631C70.9322 27.7722 71.0184 28.0844 70.9931 28.1997C70.9678 28.3176 70.9299 28.4292 70.8793 28.5345C70.8288 28.6398 70.7667 28.7376 70.6931 28.8279C70.6219 28.9182 70.5414 28.9971 70.4517 29.0649C70.3621 29.1351 70.2655 29.1915 70.1621 29.2341C70.0586 29.2767 69.9529 29.3056 69.8449 29.3206C69.7368 29.3357 69.6276 29.3369 69.5173 29.3244C69.4092 29.3093 69.3035 29.2818 69.2 29.2416C69.0966 29.199 69 29.1438 68.9104 29.0761C68.8207 29.0084 68.7391 28.9307 68.6655 28.8429C68.592 28.7526 68.5288 28.6549 68.4759 28.5495C68.4253 28.4442 68.3862 28.3326 68.3586 28.2148C68.3334 28.0994 68.3196 27.9815 68.3173 27.8612C68.3173 27.7433 68.3299 27.485 68.3552 27.0863C68.3828 26.6876 68.4299 26.2952 68.4966 25.909C68.5632 25.5253 68.6575 25.1316 68.7793 24.7279C68.8989 24.3241 69.0242 23.9016 69.1552 23.4603C69.2839 23.0189 69.4242 22.5299 69.5759 21.9933C69.7276 21.4567 69.9069 20.8047 70.1138 20.0373C70.3184 19.265 70.4977 18.5979 70.6517 18.0362C70.8081 17.472 70.923 16.8915 70.9966 16.2947C71.0724 15.6953 71.1219 15.0471 71.1449 14.35C71.1701 13.6529 71.2092 13.0861 71.2621 12.6498C71.3173 12.2135 71.3736 11.8662 71.4311 11.6079C71.4908 11.3471 71.6414 11.2806 71.8828 11.4085C72.1265 11.5389 72.1322 11.6793 71.9 11.8298C71.6678 11.9803 71.3816 12.2686 71.0414 12.6949C70.6989 13.1212 70.2782 13.6679 69.7793 14.3349C69.2828 14.9995 68.7426 15.7969 68.1586 16.7272C67.5747 17.6601 67.0552 18.5478 66.6 19.3904C66.1449 20.2329 65.7322 21.1282 65.3621 22.076C64.992 23.0264 64.6242 23.8878 64.2586 24.6602C63.8908 25.43 63.5701 26.1648 63.2966 26.8644C63.0207 27.564 62.7828 28.1621 62.5828 28.6586C62.3805 29.1551 62.2092 29.5225 62.069 29.7607C61.9265 29.9964 61.8242 30.1569 61.7621 30.2422C61.6977 30.33 61.6253 30.4077 61.5449 30.4754C61.4667 30.5431 61.3805 30.5983 61.2862 30.6409C61.1943 30.686 61.0977 30.7186 60.9966 30.7387C60.8977 30.7563 60.7977 30.7613 60.6966 30.7538C60.5954 30.7462 60.4966 30.7249 60.4 30.6898C60.3035 30.6572 60.2115 30.6121 60.1242 30.5544C60.0391 30.4967 59.9609 30.4278 59.8897 30.3475C59.8184 30.2698 59.7575 30.1833 59.7069 30.088C59.654 29.9927 59.6127 29.8924 59.5828 29.7871C59.5552 29.6792 59.5391 29.5701 59.5345 29.4598C59.5276 29.3495 59.5345 29.2404 59.5552 29.1326C59.5736 29.0247 59.6035 28.9207 59.6449 28.8204C59.6885 28.7201 59.7724 28.5596 59.8966 28.3389C60.0207 28.1207 60.1357 27.8737 60.2414 27.5979C60.3472 27.3195 60.4885 27.0286 60.6655 26.7252C60.8426 26.4193 60.9897 26.0833 61.1069 25.7171C61.2219 25.351 61.3299 24.9774 61.4311 24.5962C61.5322 24.2151 61.6138 23.7624 61.6759 23.2383C61.7357 22.7142 61.8506 22.2077 62.0207 21.7187C62.1908 21.2322 62.2816 20.9689 62.2931 20.9288C62.3023 20.8862 62.3161 20.8473 62.3345 20.8122C62.3552 20.7746 62.3782 20.7395 62.4035 20.7069C62.4311 20.6743 62.4609 20.6467 62.4931 20.6241C62.5253 20.6015 62.5598 20.5827 62.5966 20.5677C62.6334 20.5526 62.6713 20.5439 62.7104 20.5414C62.7472 20.5363 62.7851 20.5363 62.8242 20.5414C62.8632 20.5489 62.9012 20.5602 62.938 20.5752C62.9747 20.5903 63.0092 20.6103 63.0414 20.6354C63.0736 20.6605 63.1023 20.6893 63.1276 20.7219C63.1529 20.7545 63.1736 20.7909 63.1897 20.831C63.2081 20.8686 63.2219 20.9087 63.2311 20.9514C63.2403 20.9915 63.2437 21.0316 63.2414 21.0717C63.2414 21.1169 63.2414 21.1394 63.2414 21.1394Z" fill="white"/>
<path d="M61.9517 21.305C61.9517 21.305 62.1977 21.157 62.6897 20.8611C63.1839 20.5652 63.7471 20.3383 64.3793 20.1803C65.0115 20.0198 65.6069 19.9007 66.1655 19.8229C66.7218 19.7427 67.1931 19.6524 67.5793 19.5521C67.9632 19.4518 68.3264 19.3778 68.669 19.3302C69.0092 19.2825 69.4035 19.2286 69.8517 19.1684C70.3 19.1108 70.8483 19.0882 71.4966 19.1007C72.1448 19.1158 72.4943 19.1221 72.5448 19.1195C72.5931 19.117 72.6402 19.1233 72.6862 19.1384C72.7345 19.1534 72.7782 19.176 72.8172 19.2061C72.8586 19.2362 72.8931 19.2725 72.9207 19.3151C72.9506 19.3578 72.9736 19.4042 72.9897 19.4543C73.0035 19.5045 73.0104 19.5571 73.0104 19.6123C73.0104 19.665 73.0023 19.7164 72.9862 19.7665C72.9701 19.8167 72.9471 19.8631 72.9172 19.9057C72.8851 19.9483 72.8494 19.9834 72.8104 20.011C72.769 20.0411 72.7241 20.0624 72.6759 20.075C72.6299 20.09 72.5828 20.0963 72.5345 20.0938C72.4862 20.0888 72.4391 20.0762 72.3931 20.0562C72.3471 20.0361 72.3058 20.0085 72.269 19.9734C72.2322 19.9383 72.2012 19.8982 72.1759 19.853C72.1529 19.8054 72.1356 19.7565 72.1241 19.7063C72.1149 19.6537 72.1138 19.601 72.1207 19.5484C72.1253 19.4957 72.1379 19.4443 72.1586 19.3941C72.1793 19.3465 72.2069 19.3039 72.2414 19.2662C72.2759 19.2286 72.3149 19.1973 72.3586 19.1722C72.4023 19.1471 72.4483 19.1308 72.4966 19.1233C72.5448 19.1158 72.5931 19.117 72.6414 19.1271C72.6897 19.1346 72.7345 19.1509 72.7759 19.176C72.8195 19.2036 72.8575 19.2362 72.8897 19.2738C72.9241 19.3139 72.9506 19.3578 72.969 19.4054C72.9897 19.4556 73.0023 19.507 73.0069 19.5596C73.0115 19.6123 73.0081 19.665 72.9966 19.7176C72.9874 19.7678 72.9701 19.8154 72.9448 19.8606C72.9172 19.9057 72.8851 19.9458 72.8483 19.9809C72.8115 20.016 72.7701 20.0424 72.7241 20.0599C72.6782 20.08 72.6552 20.09 72.6552 20.09C72.6552 20.09 72.3575 20.2731 71.7621 20.6392C71.1667 21.0078 70.6299 21.2523 70.1517 21.3727C69.6736 21.4905 69.2931 21.567 69.0103 21.6021C68.7276 21.6372 68.3552 21.6999 67.8931 21.7902C67.4333 21.8805 66.954 21.9419 66.4552 21.9745C65.9563 22.0096 65.4012 22.0811 64.7897 22.1889C64.1805 22.2967 63.5943 22.3469 63.031 22.3394C62.4678 22.3318 62.1667 22.3306 62.1276 22.3356C62.0885 22.3406 62.0506 22.3406 62.0138 22.3356C61.9747 22.3306 61.9368 22.3206 61.9 22.3055C61.8655 22.2905 61.8322 22.2717 61.8 22.2491C61.7678 22.224 61.7379 22.1952 61.7104 22.1626C61.6851 22.1325 61.6632 22.0986 61.6448 22.061C61.6264 22.0234 61.6126 21.9833 61.6035 21.9406C61.5943 21.9005 61.5897 21.8591 61.5897 21.8165C61.5897 21.7764 61.5943 21.7363 61.6035 21.6962C61.6126 21.6535 61.6264 21.6134 61.6448 21.5758C61.6632 21.5382 61.6851 21.5031 61.7104 21.4705C61.7356 21.4404 61.7644 21.4128 61.7966 21.3877C61.8287 21.3626 61.8632 21.3426 61.9 21.3275C61.9345 21.3125 61.9517 21.305 61.9517 21.305Z" fill="white"/>
<path d="M81.8448 13.6015L81.8793 14.4854C81.9 15.0747 81.8747 15.6164 81.8035 16.1104C81.7345 16.6019 81.7 17.0733 81.7 17.5247C81.7023 17.9735 81.6678 18.4312 81.5966 18.8976C81.5276 19.364 81.4851 19.774 81.469 20.1276C81.4529 20.4812 81.492 20.92 81.5862 21.4441L81.0311 24.5248C80.8701 25.1893 80.6265 25.3322 80.3 24.9536C79.9759 24.5749 79.7701 24.2188 79.6828 23.8853C79.5977 23.5518 79.5506 23.1042 79.5414 22.5425C79.5345 21.9808 79.5092 21.4943 79.4655 21.083C79.4219 20.6693 79.4276 20.2442 79.4828 19.8079C79.5379 19.369 79.6138 18.9603 79.7104 18.5816C79.8046 18.203 79.8931 17.7554 79.9759 17.2388C80.0586 16.7197 80.1586 16.2445 80.2759 15.8132C80.3931 15.3844 80.5288 14.8879 80.6828 14.3237C80.8368 13.7619 80.9184 13.461 80.9276 13.4209C80.9368 13.3808 80.9506 13.3419 80.969 13.3043C80.9851 13.2692 81.0058 13.2353 81.0311 13.2027C81.0563 13.1727 81.0851 13.1463 81.1173 13.1238C81.1471 13.0987 81.1805 13.0799 81.2173 13.0673C81.2517 13.0523 81.2885 13.0423 81.3276 13.0372C81.3621 13.0322 81.3977 13.0322 81.4345 13.0372C81.4736 13.0423 81.5104 13.0523 81.5448 13.0673C81.5793 13.0824 81.6127 13.1012 81.6448 13.1238C81.6747 13.1488 81.7023 13.1764 81.7276 13.2065C81.7529 13.2366 81.7747 13.2705 81.7931 13.3081C81.8092 13.3457 81.8219 13.3845 81.8311 13.4247C81.8402 13.4648 81.8448 13.5037 81.8448 13.5413V13.6015Z" fill="white"/>
<path d="M74.2965 9.67827C74.2965 9.67827 74.5023 9.5065 74.9138 9.16295C75.3276 8.82191 75.8873 8.55484 76.5931 8.36176C77.2965 8.16867 78.1655 7.99188 79.2 7.83139C80.2322 7.66839 81.2034 7.55053 82.1138 7.47781C83.0264 7.4076 83.8747 7.35494 84.6586 7.31983C85.4448 7.28723 86.1862 7.29851 86.8827 7.35368C87.5816 7.40634 88.1965 7.4427 88.7276 7.46276C89.2586 7.48283 89.7368 7.49662 90.162 7.50414C90.585 7.50916 90.9885 7.55304 91.3724 7.63579C91.754 7.71854 92.1299 7.89408 92.5 8.1624C92.8678 8.43072 93.1184 8.76423 93.2517 9.16295C93.385 9.56417 93.3643 9.98796 93.1896 10.4343C93.0172 10.8857 92.6816 11.302 92.1827 11.6831C91.6862 12.0618 91.1954 12.4141 90.7103 12.7401C90.2276 13.0636 89.723 13.3482 89.1965 13.594C88.6701 13.8372 88.2299 14.0692 87.8758 14.2898C87.5195 14.508 87.123 14.7425 86.6862 14.9932C86.2471 15.2465 85.8517 15.4922 85.5 15.7305C85.146 15.9687 84.9494 16.222 84.9103 16.4903C84.8712 16.7561 84.9368 16.9943 85.1069 17.205C85.2793 17.4156 85.6 17.6877 86.0689 18.0212C86.5379 18.3547 87.0483 18.7158 87.6 19.1045C88.154 19.4932 88.7379 19.8731 89.3517 20.2442C89.9655 20.6129 90.577 20.989 91.1862 21.3727C91.7977 21.7589 92.354 22.1576 92.8551 22.5688C93.3563 22.9801 93.8724 23.4114 94.4034 23.8628C94.9322 24.3166 95.3666 24.7367 95.7069 25.1229C96.0448 25.5065 96.3264 25.8676 96.5517 26.2062C96.777 26.5447 96.9816 26.9233 97.1655 27.3421C97.3471 27.7609 97.4793 28.1634 97.562 28.5496C97.6425 28.9332 97.6919 29.3344 97.7103 29.7532C97.7287 30.1695 97.6402 30.6936 97.4448 31.3255C97.2517 31.9574 96.9724 32.5555 96.6069 33.1197C96.2414 33.6814 96.0483 33.9861 96.0276 34.0338C96.0069 34.0814 95.9793 34.124 95.9448 34.1617C95.9103 34.2018 95.8712 34.2331 95.8276 34.2557C95.7839 34.2808 95.7379 34.2971 95.6896 34.3046C95.6414 34.3121 95.5931 34.3109 95.5448 34.3008C95.4965 34.2908 95.4517 34.2733 95.4103 34.2482C95.3666 34.2231 95.3287 34.1905 95.2965 34.1504C95.2643 34.1103 95.2379 34.0664 95.2172 34.0187C95.1965 33.9686 95.185 33.9172 95.1827 33.8645C95.1781 33.8118 95.1816 33.7592 95.1931 33.7065C95.2046 33.6564 95.223 33.6087 95.2483 33.5636C95.2735 33.5185 95.3057 33.4783 95.3448 33.4432C95.3816 33.4106 95.423 33.3843 95.4689 33.3642C95.5149 33.3467 95.562 33.3366 95.6103 33.3341C95.6586 33.3316 95.7069 33.3379 95.7551 33.3529C95.8011 33.368 95.8437 33.3918 95.8827 33.4244C95.9241 33.4545 95.9586 33.4909 95.9862 33.5335C96.0161 33.5761 96.0379 33.6238 96.0517 33.6764C96.0678 33.7266 96.0747 33.778 96.0724 33.8307C96.0724 33.8833 96.0643 33.9347 96.0483 33.9849C96.0299 34.035 96.0057 34.0814 95.9758 34.1241C95.946 34.1667 95.9103 34.2018 95.8689 34.2294C95.8299 34.2595 95.7862 34.2808 95.7379 34.2933C95.6896 34.3059 95.6414 34.3109 95.5931 34.3084C95.5448 34.3033 95.4977 34.2908 95.4517 34.2707C95.408 34.2507 95.3678 34.2231 95.331 34.188C95.2942 34.1529 95.2632 34.1115 95.2379 34.0639C95.2149 34.0187 95.1988 33.9698 95.1896 33.9172C95.1781 33.8645 95.1758 33.8118 95.1827 33.7592C95.1896 33.7065 95.1931 33.6802 95.1931 33.6802C95.1931 33.6802 95.1781 33.3479 95.1483 32.6834C95.1184 32.0189 95.1264 31.4985 95.1724 31.1224C95.2207 30.7463 95.2057 30.3325 95.1276 29.8811C95.0494 29.4297 94.9563 29.0762 94.8483 28.8204C94.7379 28.5621 94.6069 28.3151 94.4551 28.0794C94.3034 27.8462 94.108 27.5866 93.8689 27.3007C93.6299 27.0149 93.2528 26.65 92.7379 26.2062C92.2207 25.7598 91.7586 25.3648 91.3517 25.0213C90.9448 24.6752 90.4448 24.3141 89.8517 23.938C89.2586 23.5593 88.6299 23.1669 87.9655 22.7607C87.3011 22.3569 86.6758 21.9469 86.0896 21.5307C85.5034 21.1144 84.8816 20.6342 84.2241 20.09C83.5666 19.5459 83.0862 19.0268 82.7827 18.5328C82.4793 18.0363 82.2873 17.4959 82.2069 16.9116C82.1264 16.3298 82.1816 15.8057 82.3724 15.3393C82.5632 14.8703 82.8195 14.4729 83.1414 14.1469C83.4609 13.8184 83.8276 13.5263 84.2414 13.2705C84.6529 13.0147 85.0747 12.7689 85.5069 12.5332C85.9368 12.3 86.3735 12.0605 86.8172 11.8148C87.2609 11.569 87.6942 11.3622 88.1172 11.1941C88.5402 11.0236 89.0023 10.7829 89.5034 10.4719C90.0046 10.161 90.4597 9.99799 90.8689 9.98295C91.2781 9.96539 91.3586 9.92151 91.1103 9.8513C90.8643 9.78108 90.5241 9.7372 90.0896 9.71965C89.6529 9.7046 89.1563 9.68078 88.6 9.64818C88.0414 9.61558 87.4506 9.56543 86.8276 9.49772C86.2046 9.43252 85.5115 9.40744 84.7483 9.42249C83.9827 9.44004 83.1643 9.4739 82.2931 9.52405C81.4218 9.57169 80.4954 9.65695 79.5138 9.77983C78.5345 9.9002 77.7379 10.0268 77.1241 10.1597C76.5103 10.2951 75.9483 10.408 75.4379 10.4983C74.9253 10.5885 74.6506 10.64 74.6138 10.6525C74.577 10.6625 74.5391 10.6688 74.5 10.6713C74.4655 10.6738 74.4287 10.6713 74.3896 10.6638C74.3529 10.6537 74.3172 10.64 74.2827 10.6224C74.2483 10.6048 74.2161 10.5823 74.1862 10.5547C74.1563 10.5296 74.1299 10.4995 74.1069 10.4644C74.0816 10.4318 74.062 10.3967 74.0483 10.3591C74.0322 10.319 74.0218 10.2789 74.0172 10.2387C74.0103 10.1961 74.008 10.156 74.0103 10.1184C74.0126 10.0757 74.0207 10.0344 74.0345 9.99423C74.046 9.95411 74.062 9.9165 74.0827 9.88139C74.1034 9.84628 74.1276 9.81368 74.1552 9.78359C74.1827 9.75601 74.2126 9.73093 74.2448 9.70836C74.2793 9.6883 74.2965 9.67827 74.2965 9.67827Z" fill="white"/>
</g>
<defs>
<clipPath id="clip0_120_34">
<rect width="100" height="41" fill="white"/>
</clipPath>
</defs>
</svg>
