<svg width="135" height="61" viewBox="0 0 135 61" fill="none" xmlns="http://www.w3.org/2000/svg">
<g clip-path="url(#clip0_120_34)">
<path d="M21.749 10.1741C22.1249 10.096 22.4622 10.077 22.7609 10.1171C23.6143 9.3014 24.4702 8.59287 25.3288 7.99156C25.62 7.78687 25.9132 7.59176 26.2086 7.40624C25.7456 7.13238 25.3577 6.9544 25.0449 6.8723C24.6011 6.75291 23.9323 6.63166 23.0385 6.50854C22.1478 6.38542 21.2463 6.38728 20.3338 6.51413C19.4214 6.64471 18.703 6.79208 18.1785 6.95624C17.654 7.1204 17.1435 7.29202 16.647 7.47111C16.1504 7.65019 15.6445 7.91881 15.1294 8.27698C14.6173 8.63887 14.1425 8.98958 13.7049 9.32909C13.2673 9.67233 12.6683 10.2002 11.908 10.9128C11.1476 11.6217 10.4882 12.2224 9.92954 12.7149C9.36781 13.2036 8.82161 13.8323 8.29092 14.6008C7.75712 15.3657 7.26368 16.1044 6.81057 16.817C6.35747 17.5258 5.91988 18.3466 5.49781 19.2794C5.07574 20.2121 4.7204 21.2418 4.43178 22.3685C4.14316 23.4915 3.89333 24.7917 3.6823 26.2692C3.47126 27.7466 3.41229 29.1905 3.5054 30.6007C3.5954 32.011 3.75523 33.3448 3.98488 34.6021C4.21764 35.8594 4.52643 37.1055 4.91126 38.3405C5.29609 39.5754 5.76626 40.7581 6.32178 41.8885C6.8773 43.019 7.5585 44.1662 8.3654 45.3303C9.1723 46.4943 9.92333 47.5315 10.6185 48.4418C11.3137 49.3522 12.0616 50.1935 12.8623 50.9658C13.663 51.7381 14.4807 52.4096 15.3156 52.9805C16.1504 53.5513 16.9418 54.0176 17.6897 54.3795C18.4376 54.7414 19.2104 55.0567 20.008 55.3253C20.8056 55.5977 21.7475 55.7432 22.8337 55.7618C23.9199 55.7842 24.9595 55.7376 25.9526 55.6219C26.9426 55.51 27.928 55.2507 28.9087 54.844C29.8925 54.4336 30.853 53.8404 31.7902 53.0644C32.7275 52.2884 33.6601 51.4079 34.588 50.4229C35.5128 49.438 36.3771 48.3243 37.1809 47.0819C37.9847 45.8358 38.8692 44.3006 39.8344 42.4761C40.7995 40.6517 41.6297 38.902 42.3249 37.2268C43.0201 35.5479 43.574 33.8205 43.9868 32.0446C44.3995 30.2687 44.6928 28.4947 44.8666 26.7225C45.0404 24.9466 45.0233 23.1334 44.8154 21.2828C44.6106 19.4323 44.2211 17.6415 43.647 15.9104C43.0728 14.183 42.2225 12.4705 41.0959 10.7729C39.9694 9.07912 38.7901 7.78077 37.558 6.87789C36.329 5.97129 35.0147 5.43218 33.6151 5.26056C32.2154 5.0852 30.8126 5.26615 29.4068 5.8034C28.3144 6.21889 27.2483 6.75317 26.2086 7.40624C26.3978 7.51817 26.5995 7.64612 26.8138 7.7901C27.5525 8.2863 28.1701 8.86459 28.6666 9.52496C28.788 9.68738 28.8979 9.8427 28.9963 9.9909C29.2873 9.8411 29.5731 9.70444 29.8537 9.58092C30.8654 9.13695 31.8368 8.93361 32.7678 8.97092C33.6988 9.00823 34.6097 9.33095 35.5004 9.93909C36.3942 10.5472 37.3066 11.5284 38.2376 12.8828C39.1687 14.2333 39.8794 15.6119 40.3697 17.0184C40.857 18.425 41.1983 19.8782 41.3938 21.378C41.5894 22.8741 41.6157 24.4019 41.473 25.9614C41.3302 27.5209 41.0928 29.0636 40.7607 30.5895C40.4287 32.1155 39.9461 33.6526 39.313 35.2009C38.6799 36.7492 37.9102 38.3871 37.004 40.1145C36.1009 41.8419 35.322 43.2317 34.6671 44.2838C34.0092 45.3396 33.2659 46.3134 32.4373 47.205C31.6087 48.0967 30.8592 48.8466 30.1888 49.4548C29.5185 50.0629 28.8342 50.5311 28.1359 50.8594C27.4314 51.1878 26.6416 51.4042 25.7664 51.5086C24.8913 51.6131 24.0595 51.6784 23.2713 51.7045C22.4861 51.7306 21.7568 51.6336 21.0833 51.4135C20.413 51.1896 19.7737 50.9359 19.1654 50.6524C18.554 50.3651 17.907 49.9957 17.2242 49.5443C16.5445 49.0929 15.8711 48.5538 15.2038 47.927C14.5366 47.3039 13.874 46.5596 13.2161 45.694C12.5582 44.8285 11.8801 43.9013 11.1818 42.9127C10.4866 41.9202 9.90626 40.9689 9.44074 40.0585C8.97523 39.1482 8.57488 38.1707 8.23971 37.1261C7.90454 36.0814 7.63299 35.0181 7.42505 33.9361C7.21712 32.8579 7.06195 31.789 6.95954 30.7295C6.85712 29.6736 6.89436 28.4947 7.07126 27.1926C7.24816 25.8905 7.43747 24.8029 7.63919 23.9299C7.84402 23.0569 8.10316 22.2529 8.41661 21.5179C8.73316 20.7792 9.11178 20.0628 9.55247 19.3689C9.99005 18.675 10.3656 18.0687 10.679 17.5501C10.9925 17.0315 11.4409 16.5148 12.0244 15.9999C12.6078 15.4851 13.2378 14.9049 13.9144 14.2595C14.5909 13.614 15.2613 13.0171 15.9254 12.4686C16.5926 11.9165 17.1513 11.5564 17.6013 11.3885C18.0482 11.2206 18.492 11.0621 18.9326 10.9128C19.3764 10.7636 19.8125 10.633 20.2407 10.5211C20.669 10.4054 21.1718 10.2898 21.749 10.1741Z" fill="white"/>
<path d="M26.4921 11.5164C26.3712 11.4128 26.2426 11.3105 26.1063 11.2095C25.7338 10.9334 25.2559 10.7394 24.6725 10.6274C24.089 10.5155 23.5987 10.3831 23.2014 10.2301C23.0653 10.176 22.9185 10.1383 22.7609 10.1171C22.3065 10.5516 21.8528 11.0164 21.3999 11.5117C20.0964 12.9294 18.897 14.5094 17.8014 16.2517C16.709 17.9903 15.6895 20.1599 14.743 22.7603C14.743 22.7603 14.175 24.5488 14.85 25.2927C15.525 26.0366 16.5306 24.2209 16.5306 24.2209C17.7347 21.9973 18.8504 20.1188 19.8776 18.5854C20.908 17.052 22.0051 15.6697 23.1688 14.4385C24.2895 13.2597 25.3972 12.2857 26.4921 11.5164Z" fill="white"/>
<path d="M24.6725 10.6274C25.2559 10.7394 25.7338 10.9334 26.1063 11.2095C26.2426 11.3105 26.3712 11.4128 26.4921 11.5164C26.5373 11.4846 26.5825 11.4532 26.6276 11.4221C27.452 10.8566 28.2415 10.3795 28.9963 9.9909C28.8979 9.8427 28.788 9.68738 28.6666 9.52496C28.1701 8.86459 27.5525 8.2863 26.8138 7.7901C26.5995 7.64612 26.3978 7.51817 26.2086 7.40624C25.9132 7.59176 25.62 7.78687 25.3288 7.99156C24.4702 8.59287 23.6143 9.3014 22.7609 10.1171C22.9185 10.1383 23.0653 10.176 23.2014 10.2301C23.5987 10.3831 24.089 10.5155 24.6725 10.6274Z" fill="white"/>
<path d="M27.0513 12.0657C27.3057 12.3604 27.5711 12.6925 27.8473 13.0618C27.8473 13.0618 28.4709 14.1341 29.025 14.1341C29.579 14.1341 29.4828 13.4014 29.4766 13.3417C29.4704 13.282 29.5154 13.0077 29.6116 12.519C29.7078 12.0302 29.6969 11.5751 29.579 11.1535C29.4924 10.8328 29.2982 10.4453 28.9963 9.9909C28.2415 10.3795 27.452 10.8566 26.6276 11.4221C26.5825 11.4532 26.5373 11.4846 26.4921 11.5164C26.7016 11.6957 26.888 11.8788 27.0513 12.0657Z" fill="white"/>
<path d="M50.9923 37.444C50.9923 37.444 50.9706 37.791 50.9272 38.4849C50.8806 39.1826 50.8403 39.8449 50.8061 40.4716C50.7751 41.0984 50.7161 41.8913 50.6292 42.8501C50.5454 43.8127 50.4415 44.6764 50.3173 45.4412C50.1932 46.2098 50.1156 46.8794 50.0846 47.4503C50.0535 48.0211 49.9822 48.5957 49.8704 49.1739C49.7587 49.7522 49.6842 50.2932 49.647 50.7969C49.6097 51.2968 49.5725 51.6177 49.5353 51.7594C49.498 51.9012 49.4468 52.0355 49.3816 52.1624C49.3196 52.2892 49.2435 52.4068 49.1535 52.5149C49.0666 52.6194 48.9704 52.709 48.8649 52.7836C48.7594 52.8619 48.6477 52.9216 48.5297 52.9627C48.4118 53.0074 48.2908 53.0335 48.1666 53.041C48.0425 53.0485 47.9199 53.0391 47.7989 53.013C47.6778 52.9869 47.5599 52.9421 47.4451 52.8787C47.3334 52.819 47.2294 52.7425 47.1332 52.6493C47.037 52.556 46.9501 52.4515 46.8725 52.3359C46.798 52.2165 46.7359 52.0896 46.6863 51.9553C46.6335 51.8173 46.5963 51.6755 46.5746 51.53C46.5528 51.3845 46.5466 51.2371 46.5559 51.0879C46.5622 50.9387 46.6708 50.5842 46.8818 50.0246C47.0897 49.4612 47.3582 48.8438 47.6872 48.1722C48.0161 47.5006 48.3715 46.6724 48.7532 45.6874C49.1349 44.7062 49.6346 43.4526 50.2522 41.9267C50.8666 40.4008 51.433 38.9047 51.9513 37.4384C52.4665 35.9722 53.0158 34.4351 53.5992 32.8271C54.1827 31.2153 54.777 29.5849 55.3822 27.9359C55.9842 26.2868 56.5925 24.6284 57.207 22.9607C57.8184 21.293 58.4437 19.7578 59.083 18.355C59.7223 16.9484 60.3166 15.7247 60.8659 14.6838C61.4122 13.6428 61.8513 12.8407 62.1834 12.2773C62.5123 11.714 62.9934 11.1226 63.6265 10.5033C64.2627 9.88397 64.8772 9.74966 65.4699 10.1004C66.0627 10.4473 66.4506 10.9958 66.6337 11.7457C66.8168 12.4919 66.8277 13.5496 66.6663 14.9188C66.5018 16.2843 66.3435 17.6442 66.1915 18.9985C66.0394 20.3491 65.8377 21.7183 65.5863 23.1062C65.3349 24.4941 65.0665 25.8596 64.7809 27.2027C64.4985 28.5459 64.258 29.8032 64.0594 30.9747C63.8608 32.1462 63.6715 33.1647 63.4915 34.0303C63.3115 34.8958 63.192 35.6252 63.133 36.2184C63.0772 36.8116 63.0104 37.3414 62.9328 37.8078C62.8522 38.2742 62.5728 38.3059 62.0949 37.9029C61.6139 37.5037 61.603 36.8284 62.0623 35.8771C62.5247 34.922 63.1175 33.8866 63.8406 32.7711C64.5637 31.6518 65.2418 30.4561 65.8749 29.1838C66.508 27.9153 67.1396 26.5797 67.7696 25.1769C68.4027 23.7778 69.0358 22.3955 69.6689 21.03C70.3051 19.6645 70.9428 18.3568 71.5822 17.107C72.2215 15.8609 72.8142 14.7509 73.3604 13.7772C73.9097 12.7997 74.3349 12.0162 74.636 11.4267C74.937 10.8372 75.1992 10.3578 75.4227 9.98844C75.6461 9.61908 75.8044 9.36538 75.8975 9.22734C75.9906 9.08556 76.0946 8.96058 76.2094 8.85238C76.3273 8.74419 76.4546 8.65465 76.5911 8.58376C76.7246 8.51287 76.8642 8.46064 77.0101 8.42706C77.156 8.39721 77.3034 8.38789 77.4523 8.39908C77.5982 8.414 77.7425 8.44758 77.8853 8.49981C78.0249 8.55578 78.1584 8.6304 78.2856 8.72367C78.4097 8.81694 78.5246 8.92513 78.6301 9.04825C78.7325 9.1751 78.8225 9.31501 78.9001 9.46798C78.9746 9.62094 79.0335 9.78324 79.077 9.95486C79.1204 10.1265 79.1453 10.3 79.1515 10.4753C79.1608 10.6544 79.1515 10.8316 79.1235 11.007C79.0956 11.1823 79.0506 11.3502 78.9885 11.5106C78.9265 11.6711 78.9482 11.4827 79.0537 10.9454C79.1623 10.4119 79.2353 10.6898 79.2725 11.7793C79.3097 12.8687 79.2275 14.1353 79.0258 15.5792C78.8241 17.023 78.6363 18.4557 78.4625 19.8772C78.2918 21.2986 78.0761 22.7182 77.8154 24.136C77.5547 25.5574 77.3282 26.8688 77.1358 28.0702C76.9434 29.2715 76.7603 30.402 76.5865 31.4616C76.4127 32.5211 76.2932 33.4035 76.228 34.1086C76.1628 34.8175 76.1535 35.4163 76.2001 35.905C76.2466 36.3938 76.121 36.9982 75.823 37.7183C75.5251 38.442 75.3963 38.8375 75.4366 38.9047C75.4739 38.9681 75.5018 39.0371 75.5204 39.1117C75.5391 39.1901 75.5468 39.2684 75.5437 39.3468C75.5406 39.4251 75.5282 39.5016 75.5065 39.5762C75.4816 39.6509 75.4491 39.718 75.4087 39.7777C75.3653 39.8411 75.3156 39.8934 75.2597 39.9344C75.2039 39.9754 75.1449 40.0053 75.0828 40.0239C75.0177 40.0426 74.9525 40.0482 74.8873 40.0407C74.8222 40.0333 74.7585 40.0146 74.6965 39.9848C74.6375 39.9512 74.5832 39.9083 74.5335 39.8561C74.4839 39.8001 74.4435 39.7385 74.4125 39.6714C74.3815 39.6005 74.3597 39.5259 74.3473 39.4475C74.3349 39.3692 74.3334 39.2908 74.3427 39.2125C74.352 39.1341 74.3722 39.0595 74.4032 38.9886C74.4342 38.9215 74.473 38.8599 74.5196 38.8039C74.5661 38.748 74.6189 38.7032 74.6778 38.6696C74.7368 38.6323 74.7989 38.6099 74.8641 38.6025C74.9292 38.5913 74.9944 38.5931 75.0596 38.6081C75.1247 38.623 75.1853 38.651 75.2411 38.692C75.3001 38.7331 75.3513 38.7834 75.3947 38.8431C75.4382 38.9028 75.4723 38.9681 75.4972 39.039C75.522 39.1136 75.5375 39.1901 75.5437 39.2684C75.5468 39.3468 75.5406 39.4251 75.5251 39.5035C75.5096 39.5781 75.4832 39.649 75.446 39.7161C75.4087 39.7833 75.3653 39.8411 75.3156 39.8896C75.2628 39.9381 75.2054 39.9754 75.1434 40.0016C75.0813 40.0277 75.0177 40.0426 74.9525 40.0463C74.8873 40.0463 74.8222 40.0351 74.757 40.0127C74.6949 39.9866 74.6375 39.9512 74.5847 39.9064C74.532 39.8579 74.5056 39.8337 74.5056 39.8337C74.5056 39.8337 74.1875 39.3785 73.5513 38.4682C72.9182 37.5653 72.5675 36.7072 72.4992 35.8939C72.4278 35.0842 72.4325 34.2635 72.5132 33.4315C72.5939 32.5957 72.7211 31.6518 72.8949 30.5997C73.0656 29.5439 73.2518 28.3948 73.4535 27.1524C73.6522 25.9063 73.8741 24.6303 74.1192 23.3245C74.3613 22.015 74.5708 20.6271 74.7477 19.1608C74.9246 17.6983 75.1791 16.1444 75.5111 14.4991C75.8432 12.8538 75.9673 11.5983 75.8835 10.7328C75.7997 9.86718 75.8044 9.36538 75.8975 9.22734C75.9906 9.08556 76.0946 8.96058 76.2094 8.85238C76.3273 8.74419 76.4546 8.65465 76.5911 8.58376C76.7246 8.51287 76.8642 8.46064 77.0101 8.42706C77.156 8.39721 77.3034 8.38789 77.4523 8.39908C77.5982 8.414 77.7425 8.44758 77.8853 8.49981C78.0249 8.55578 78.1584 8.6304 78.2856 8.72367C78.4097 8.81694 78.5246 8.92513 78.6301 9.04825C78.7325 9.1751 78.8225 9.31501 78.9001 9.46798C78.9746 9.62094 79.0335 9.78324 79.077 9.95486C79.1204 10.1265 79.1453 10.3 79.1515 10.4753C79.1608 10.6544 79.1515 10.8316 79.1235 11.007C79.0956 11.1786 79.0506 11.3465 78.9885 11.5106C78.9265 11.6711 78.7837 11.936 78.5603 12.3053C78.3368 12.6747 78.0606 13.1821 77.7316 13.8275C77.3996 14.473 76.9744 15.2565 76.4561 16.178C75.9378 17.0995 75.373 18.1572 74.7616 19.3511C74.1534 20.545 73.5358 21.8172 72.9089 23.1678C72.2851 24.5184 71.6458 25.9249 70.9909 27.3874C70.333 28.8462 69.6472 30.2863 68.9334 31.7078C68.2196 33.1293 67.4794 34.4295 66.7128 35.6084C65.9463 36.7837 65.2899 37.7462 64.7437 38.4961C64.1975 39.2423 63.6746 39.8542 63.1749 40.3317C62.6722 40.8093 62.2361 41.0462 61.8668 41.0425C61.4975 41.0387 60.9901 40.7179 60.3446 40.0799C59.6991 39.4457 59.3639 38.9028 59.3391 38.4514C59.3142 38.0037 59.3204 37.5709 59.3577 37.153C59.3949 36.7314 59.4616 36.142 59.5578 35.3846C59.6509 34.6235 59.7859 33.8437 59.9628 33.0453C60.1397 32.2432 60.3384 31.2246 60.5587 29.9897C60.7759 28.7548 61.0258 27.4919 61.3082 26.201C61.5906 24.9101 61.8513 23.6267 62.0903 22.3507C62.3323 21.0748 62.5341 19.7466 62.6954 18.3661C62.8568 16.982 63.0694 15.6016 63.3332 14.2249C63.597 12.8482 64.0253 12.4396 64.618 12.9993C65.2077 13.5589 65.3535 14.0905 65.0556 14.5942C64.7577 15.0979 64.3527 15.8329 63.8406 16.7992C63.3254 17.7655 62.7699 18.8978 62.1741 20.1961C61.5782 21.4945 60.973 22.9738 60.3585 24.634C59.7441 26.298 59.1342 27.9527 58.5291 29.598C57.9239 31.2433 57.3296 32.8644 56.7461 34.4612C56.1658 36.0543 55.6009 37.6175 55.0516 39.1509C54.5054 40.6843 53.9204 42.2028 53.2966 43.7063C52.6728 45.2099 52.1391 46.5064 51.6953 47.5958C51.2515 48.6889 50.7906 49.6216 50.3127 50.3939C49.8316 51.1625 49.5725 51.6177 49.5353 51.7594C49.498 51.9012 49.4468 52.0355 49.3816 52.1624C49.3196 52.2892 49.2435 52.4068 49.1535 52.5149C49.0666 52.6194 48.9704 52.709 48.8649 52.7836C48.7594 52.8619 48.6477 52.9216 48.5297 52.9627C48.4118 53.0074 48.2908 53.0335 48.1666 53.041C48.0425 53.0485 47.9199 53.0391 47.7989 53.013C47.6778 52.9869 47.5599 52.9421 47.4451 52.8787C47.3334 52.819 47.2294 52.7425 47.1332 52.6493C47.037 52.556 46.9501 52.4515 46.8725 52.3359C46.798 52.2165 46.7359 52.0896 46.6863 51.9553C46.6335 51.8173 46.5963 51.6755 46.5746 51.53C46.5528 51.3845 46.5466 51.2371 46.5559 51.0879C46.5622 50.9387 46.6165 50.5656 46.7189 49.9686C46.8213 49.3679 46.9315 48.8736 47.0494 48.4856C47.1673 48.1013 47.2713 47.5659 47.3613 46.8794C47.4482 46.193 47.5708 45.5102 47.7291 44.8312C47.8842 44.1559 48.0409 43.3556 48.1992 42.4304C48.3544 41.5088 48.4925 40.6582 48.6135 39.8784C48.7315 39.0987 48.9456 38.4141 49.2559 37.8246C49.5694 37.2351 49.737 36.9105 49.7587 36.8508C49.7835 36.7911 49.813 36.737 49.8472 36.6885C49.8813 36.6363 49.9185 36.5915 49.9589 36.5542C50.0023 36.5169 50.0489 36.4852 50.0985 36.4591C50.1482 36.433 50.1994 36.4143 50.2522 36.4031C50.308 36.3919 50.3608 36.3901 50.4104 36.3975C50.4632 36.4012 50.5159 36.4143 50.5687 36.4367C50.6184 36.4553 50.6665 36.4815 50.713 36.515C50.7596 36.5524 50.8015 36.5934 50.8387 36.6382C50.8759 36.6867 50.9085 36.7389 50.9365 36.7949C50.9613 36.8508 50.9815 36.9105 50.997 36.9739C51.0125 37.0336 51.0218 37.0971 51.0249 37.1642C51.0249 37.2239 51.0203 37.2855 51.0109 37.3489C50.9985 37.4123 50.9923 37.444 50.9923 37.444Z" fill="white"/>
<path d="M85.3758 31.4514C85.3758 31.4514 85.4007 31.8375 85.4503 32.6098C85.5031 33.3858 85.5326 34.132 85.5388 34.8483C85.545 35.5647 85.5108 36.2791 85.4364 36.9917C85.3619 37.7043 85.2688 38.3815 85.1571 39.0232C85.0453 39.6649 84.8762 40.3327 84.6496 41.0267C84.4169 41.7244 84.1888 42.4109 83.9653 43.0861C83.745 43.7652 83.6131 44.2222 83.5696 44.4572C83.5262 44.6886 83.4626 44.8676 83.3788 44.9945C83.2919 45.1251 83.1941 45.2407 83.0855 45.3415C82.9769 45.4422 82.8605 45.5243 82.7364 45.5877C82.6122 45.6549 82.4819 45.7034 82.3453 45.7332C82.2119 45.7593 82.0769 45.7668 81.9403 45.7556C81.8038 45.7444 81.6703 45.7127 81.54 45.6605C81.4096 45.612 81.2855 45.5448 81.1676 45.459C81.0527 45.3732 80.9472 45.2706 80.851 45.1512C80.7548 45.0355 80.6726 44.9068 80.6043 44.765C80.5329 44.6233 80.4771 44.474 80.4367 44.3173C80.3995 44.1569 80.3777 43.9946 80.3715 43.8305C80.3622 43.6663 80.3715 43.504 80.3995 43.3436C80.4243 43.1831 80.4646 43.0283 80.5205 42.8791C80.5795 42.7298 80.7765 42.1833 81.1117 41.2394C81.4469 40.2992 81.7991 39.3086 82.1684 38.2677C82.5408 37.2305 82.9939 36.0926 83.5277 34.8539C84.0646 33.6153 84.5674 32.3393 85.036 31.0261C85.5108 29.7128 86.0927 28.351 86.7817 26.9407C87.4738 25.5342 88.2388 24.0997 89.0767 22.6372C89.9146 21.1746 90.6998 19.9043 91.4322 18.8261C92.1646 17.7478 92.7776 16.8729 93.271 16.2014C93.7614 15.5261 94.1912 15.0075 94.5605 14.6456C94.9298 14.28 95.2789 13.9946 95.6079 13.7894C95.9369 13.5879 96.4443 13.5319 97.1302 13.6215C97.8191 13.7147 98.3607 13.9703 98.7548 14.3882C99.1489 14.806 99.4252 15.3619 99.5834 16.0559C99.7386 16.7498 99.7929 17.6079 99.7464 18.6302C99.6998 19.6524 99.6688 20.643 99.6533 21.6018C99.6346 22.5607 99.5757 23.555 99.4764 24.5847C99.3802 25.6144 99.2141 26.6572 98.9783 27.713C98.7455 28.7651 98.4957 29.8695 98.2288 31.0261C97.9619 32.1789 97.726 33.1676 97.5212 33.9921C97.3164 34.8166 97.1255 35.5665 96.9486 36.2418C96.7717 36.9209 96.5995 37.5644 96.4319 38.1726C96.2674 38.7844 96.1479 39.4056 96.0734 40.0361C96.0021 40.6704 95.9539 41.105 95.9291 41.3401C95.9043 41.5789 95.8748 41.7841 95.8407 41.9557C95.8065 42.131 95.7553 42.2971 95.6871 42.4538C95.6188 42.6105 95.535 42.756 95.4357 42.8903C95.3395 43.0246 95.2308 43.144 95.1098 43.2484C94.9857 43.3492 94.8553 43.4313 94.7188 43.4947C94.5791 43.5581 94.4364 43.601 94.2905 43.6234C94.1446 43.6458 93.9972 43.6476 93.8483 43.629C93.7024 43.6066 93.5596 43.5656 93.42 43.5059C93.2803 43.4424 93.15 43.3604 93.0289 43.2596C92.9048 43.1589 92.7946 43.0414 92.6984 42.9071C92.5991 42.7765 92.5138 42.6328 92.4424 42.4761C92.3741 42.3194 92.3214 42.1534 92.2841 41.9781C92.25 41.8065 92.2314 41.6311 92.2283 41.452C92.2283 41.2767 92.5029 40.8719 93.0522 40.2376C93.6015 39.6034 93.8839 39.2471 93.8995 39.1687C93.915 39.0904 93.9414 39.0195 93.9786 38.9561C94.0158 38.8889 94.0608 38.8311 94.1136 38.7826C94.1633 38.7341 94.2191 38.6968 94.2812 38.6706C94.3433 38.6445 94.4084 38.6296 94.4767 38.6259C94.5419 38.6259 94.6055 38.6389 94.6676 38.665C94.7296 38.6874 94.7871 38.7229 94.8398 38.7714C94.8957 38.8161 94.9422 38.8721 94.9795 38.9393C95.0167 39.0027 95.0446 39.0736 95.0633 39.1519C95.0819 39.2265 95.0896 39.303 95.0865 39.3814C95.0834 39.4597 95.0695 39.5362 95.0446 39.6108C95.0229 39.6854 94.9903 39.7526 94.9469 39.8123C94.9065 39.8757 94.8584 39.9279 94.8026 39.969C94.7467 40.01 94.6862 40.0399 94.621 40.0585C94.5558 40.0772 94.4907 40.0828 94.4255 40.0753C94.3603 40.0679 94.2983 40.0473 94.2393 40.0138C94.1772 39.9839 94.1229 39.941 94.0764 39.885C94.0267 39.8328 93.9864 39.7713 93.9553 39.7004C93.9243 39.6332 93.9026 39.5605 93.8902 39.4821C93.8777 39.4038 93.8762 39.3254 93.8855 39.2471C93.8948 39.1687 93.915 39.0941 93.946 39.0232C93.9771 38.9523 94.0158 38.8889 94.0624 38.8329C94.1089 38.777 94.1617 38.7322 94.2207 38.6986C94.2827 38.665 94.3464 38.6427 94.4115 38.6315C94.4767 38.624 94.5419 38.6277 94.6071 38.6427C94.6691 38.6576 94.7296 38.6856 94.7886 38.7266C94.8445 38.7676 94.8941 38.818 94.9376 38.8777C94.981 38.9374 95.0152 39.0027 95.04 39.0736C95.0648 39.1482 95.0803 39.2247 95.0865 39.303C95.0896 39.3814 95.0912 39.4205 95.0912 39.4205C95.0912 39.4205 95.2246 39.8011 95.4915 40.5622C95.7584 41.3196 95.8748 41.7841 95.8407 41.9557C95.8065 42.131 95.7553 42.2971 95.6871 42.4538C95.6188 42.6105 95.535 42.756 95.4357 42.8903C95.3395 43.0246 95.2308 43.1421 95.1098 43.2428C94.9888 43.3473 94.8584 43.4313 94.7188 43.4947C94.5791 43.5581 94.4364 43.601 94.2905 43.6234C94.1446 43.6458 93.9972 43.6476 93.8483 43.629C93.7024 43.6066 93.5596 43.5656 93.42 43.5059C93.2803 43.4424 93.15 43.3604 93.0289 43.2596C92.9079 43.1589 92.7977 43.0432 92.6984 42.9127C92.5991 42.7783 92.5138 42.6328 92.4424 42.4761C92.3741 42.3194 92.3214 42.1534 92.2841 41.9781C92.25 41.8065 92.2314 41.6311 92.2283 41.452C92.2283 41.2767 92.2453 40.8924 92.2795 40.2992C92.3167 39.706 92.3803 39.1221 92.4703 38.5475C92.5603 37.9767 92.6876 37.3909 92.8521 36.7903C93.0134 36.1896 93.1826 35.5609 93.3595 34.9043C93.5333 34.2477 93.7226 33.5202 93.9274 32.7217C94.1322 31.9233 94.3743 30.9533 94.6536 29.8116C94.9298 28.6625 95.1719 27.6701 95.3798 26.8344C95.5908 25.995 95.746 25.1313 95.8453 24.2433C95.9477 23.3516 96.0145 22.3872 96.0455 21.35C96.0796 20.3128 96.1324 19.4696 96.2038 18.8205C96.2783 18.1713 96.3543 17.6546 96.4319 17.2703C96.5126 16.8823 96.7158 16.7834 97.0417 16.9737C97.3707 17.1677 97.3784 17.3766 97.065 17.6005C96.7515 17.8243 96.3652 18.2534 95.9058 18.8876C95.4434 19.5219 94.8755 20.3352 94.2021 21.3276C93.5317 22.3163 92.8024 23.5027 92.0141 24.8869C91.2258 26.2748 90.5245 27.5955 89.91 28.8491C89.2955 30.1027 88.7384 31.4346 88.2388 32.8449C87.7391 34.2589 87.2426 35.5404 86.7491 36.6895C86.2526 37.8349 85.8196 38.9281 85.4503 39.969C85.0779 41.0099 84.7567 41.8997 84.4867 42.6384C84.2136 43.3772 83.9824 43.9237 83.7931 44.2782C83.6007 44.6289 83.4626 44.8676 83.3788 44.9945C83.2919 45.1251 83.1941 45.2407 83.0855 45.3415C82.98 45.4422 82.8636 45.5243 82.7364 45.5877C82.6122 45.6549 82.4819 45.7034 82.3453 45.7332C82.2119 45.7593 82.0769 45.7668 81.9403 45.7556C81.8038 45.7444 81.6703 45.7127 81.54 45.6605C81.4096 45.612 81.2855 45.5448 81.1676 45.459C81.0527 45.3732 80.9472 45.2706 80.851 45.1512C80.7548 45.0355 80.6726 44.9068 80.6043 44.765C80.5329 44.6233 80.4771 44.474 80.4367 44.3173C80.3995 44.1569 80.3777 43.9946 80.3715 43.8305C80.3622 43.6663 80.3715 43.504 80.3995 43.3436C80.4243 43.1831 80.4646 43.0283 80.5205 42.8791C80.5795 42.7298 80.6927 42.4911 80.8603 42.1627C81.0279 41.8382 81.1831 41.4707 81.3258 41.0603C81.4686 40.6461 81.6595 40.2134 81.8984 39.7619C82.1374 39.3068 82.336 38.8068 82.4943 38.2621C82.6495 37.7174 82.7953 37.1615 82.9319 36.5944C83.0684 36.0273 83.1786 35.3539 83.2624 34.5741C83.3431 33.7944 83.4983 33.0407 83.7279 32.3132C83.9576 31.5894 84.0802 31.1977 84.0957 31.138C84.1081 31.0746 84.1267 31.0167 84.1515 30.9645C84.1795 30.9085 84.2105 30.8563 84.2446 30.8078C84.2819 30.7593 84.3222 30.7183 84.3657 30.6847C84.4091 30.6511 84.4557 30.6231 84.5053 30.6007C84.555 30.5783 84.6062 30.5653 84.6589 30.5616C84.7086 30.5541 84.7598 30.5541 84.8126 30.5616C84.8653 30.5727 84.9165 30.5895 84.9662 30.6119C85.0158 30.6343 85.0624 30.6642 85.1058 30.7015C85.1493 30.7388 85.1881 30.7817 85.2222 30.8302C85.2564 30.8787 85.2843 30.9328 85.306 30.9925C85.3308 31.0484 85.3495 31.1081 85.3619 31.1716C85.3743 31.2313 85.3789 31.2909 85.3758 31.3506C85.3758 31.4178 85.3758 31.4514 85.3758 31.4514Z" fill="white"/>
<path d="M83.6349 31.6976C83.6349 31.6976 83.9669 31.4775 84.6311 31.0373C85.2983 30.597 86.0586 30.2594 86.9121 30.0243C87.7655 29.7855 88.5693 29.6083 89.3235 29.4927C90.0745 29.3733 90.7107 29.239 91.2321 29.0897C91.7504 28.9405 92.2407 28.8304 92.7031 28.7596C93.1624 28.6887 93.6947 28.6084 94.2999 28.5189C94.905 28.4331 95.6452 28.3995 96.5204 28.4182C97.3955 28.4406 97.8673 28.4499 97.9355 28.4462C98.0007 28.4424 98.0643 28.4518 98.1264 28.4741C98.1916 28.4965 98.2505 28.5301 98.3033 28.5749C98.3592 28.6196 98.4057 28.6737 98.443 28.7372C98.4833 28.8006 98.5143 28.8696 98.5361 28.9442C98.5547 29.0188 98.564 29.0972 98.564 29.1793C98.564 29.2576 98.5531 29.3341 98.5314 29.4087C98.5097 29.4833 98.4786 29.5524 98.4383 29.6158C98.3949 29.6792 98.3467 29.7314 98.294 29.7725C98.2381 29.8173 98.1776 29.849 98.1124 29.8676C98.0504 29.89 97.9867 29.8993 97.9216 29.8956C97.8564 29.8881 97.7928 29.8695 97.7307 29.8396C97.6686 29.8098 97.6128 29.7688 97.5631 29.7165C97.5135 29.6643 97.4716 29.6046 97.4374 29.5374C97.4064 29.4666 97.3831 29.3938 97.3676 29.3192C97.3552 29.2408 97.3536 29.1625 97.363 29.0841C97.3692 29.0058 97.3862 28.9293 97.4142 28.8547C97.4421 28.7838 97.4793 28.7204 97.5259 28.6644C97.5724 28.6084 97.6252 28.5618 97.6842 28.5245C97.7431 28.4872 97.8052 28.4629 97.8704 28.4518C97.9355 28.4406 98.0007 28.4424 98.0659 28.4573C98.1311 28.4685 98.1916 28.4928 98.2474 28.5301C98.3064 28.5711 98.3576 28.6196 98.4011 28.6756C98.4476 28.7353 98.4833 28.8006 98.5081 28.8715C98.5361 28.9461 98.5531 29.0226 98.5593 29.1009C98.5655 29.1793 98.5609 29.2576 98.5454 29.336C98.533 29.4106 98.5097 29.4815 98.4755 29.5486C98.4383 29.6158 98.3949 29.6755 98.3452 29.7277C98.2955 29.7799 98.2397 29.8191 98.1776 29.8452C98.1155 29.8751 98.0845 29.89 98.0845 29.89C98.0845 29.89 97.6826 30.1624 96.8788 30.7071C96.075 31.2555 95.3504 31.6193 94.7049 31.7984C94.0593 31.9737 93.5457 32.0875 93.164 32.1397C92.7823 32.192 92.2795 32.2852 91.6557 32.4196C91.035 32.5539 90.388 32.6453 89.7145 32.6938C89.0411 32.746 88.2916 32.8523 87.4661 33.0128C86.6436 33.1732 85.8523 33.2478 85.0919 33.2366C84.3316 33.2254 83.925 33.2236 83.8723 33.231C83.8195 33.2385 83.7683 33.2385 83.7186 33.231C83.6659 33.2236 83.6147 33.2086 83.565 33.1862C83.5185 33.1639 83.4735 33.1359 83.43 33.1023C83.3866 33.065 83.3462 33.0221 83.309 32.9736C83.2749 32.9288 83.2454 32.8784 83.2205 32.8225C83.1957 32.7665 83.1771 32.7068 83.1647 32.6434C83.1523 32.5837 83.1461 32.5221 83.1461 32.4587C83.1461 32.399 83.1523 32.3393 83.1647 32.2796C83.1771 32.2162 83.1957 32.1565 83.2205 32.1006C83.2454 32.0446 83.2749 31.9924 83.309 31.9439C83.3431 31.8991 83.3819 31.8581 83.4254 31.8207C83.4688 31.7834 83.5154 31.7536 83.565 31.7312C83.6116 31.7088 83.6349 31.6976 83.6349 31.6976Z" fill="white"/>
<path d="M110.491 20.2363L110.537 21.5515C110.565 22.4282 110.531 23.2341 110.435 23.9691C110.342 24.7003 110.295 25.4018 110.295 26.0733C110.298 26.7411 110.252 27.422 110.155 28.116C110.062 28.8099 110.005 29.4199 109.983 29.946C109.961 30.472 110.014 31.1249 110.141 31.9047L109.392 36.4881C109.175 37.4768 108.846 37.6894 108.405 37.1261C107.967 36.5627 107.69 36.0329 107.572 35.5367C107.457 35.0405 107.393 34.3745 107.381 33.5388C107.372 32.7031 107.337 31.9793 107.278 31.3674C107.219 30.7518 107.227 30.1195 107.302 29.4703C107.376 28.8174 107.479 28.2092 107.609 27.6459C107.736 27.0825 107.856 26.4166 107.967 25.648C108.079 24.8757 108.214 24.1687 108.372 23.527C108.531 22.889 108.714 22.1503 108.922 21.3108C109.13 20.4751 109.24 20.0274 109.252 19.9677C109.265 19.908 109.283 19.8502 109.308 19.7942C109.33 19.742 109.358 19.6916 109.392 19.6431C109.426 19.5984 109.465 19.5592 109.508 19.5256C109.549 19.4883 109.594 19.4603 109.643 19.4417C109.69 19.4193 109.739 19.4044 109.792 19.3969C109.839 19.3894 109.887 19.3894 109.937 19.3969C109.989 19.4044 110.039 19.4193 110.086 19.4417C110.132 19.464 110.177 19.492 110.221 19.5256C110.261 19.5629 110.298 19.604 110.332 19.6487C110.366 19.6935 110.396 19.7439 110.421 19.7998C110.442 19.8558 110.459 19.9136 110.472 19.9733C110.484 20.033 110.491 20.0908 110.491 20.1468V20.2363Z" fill="white"/>
<path d="M100.3 14.3994C100.3 14.3994 100.578 14.1438 101.134 13.6327C101.692 13.1253 102.448 12.7279 103.401 12.4406C104.35 12.1534 105.523 11.8903 106.92 11.6516C108.313 11.409 109.625 11.2337 110.854 11.1255C112.086 11.021 113.231 10.9427 114.289 10.8905C115.35 10.842 116.351 10.8587 117.292 10.9408C118.235 11.0192 119.065 11.0733 119.782 11.1031C120.499 11.133 121.145 11.1535 121.719 11.1647C122.29 11.1721 122.834 11.2374 123.353 11.3605C123.868 11.4837 124.375 11.7448 124.875 12.144C125.372 12.5432 125.71 13.0394 125.89 13.6327C126.07 14.2296 126.042 14.8601 125.806 15.5242C125.573 16.1958 125.12 16.8151 124.447 17.3822C123.776 17.9456 123.114 18.4698 122.459 18.9548C121.807 19.4361 121.126 19.8595 120.415 20.2251C119.705 20.587 119.11 20.9321 118.632 21.2605C118.151 21.585 117.616 21.9339 117.026 22.307C116.434 22.6838 115.9 23.0494 115.425 23.4039C114.947 23.7583 114.682 24.1351 114.629 24.5343C114.576 24.9298 114.665 25.2842 114.894 25.5976C115.127 25.911 115.56 26.3158 116.193 26.812C116.826 27.3082 117.515 27.8455 118.26 28.4238C119.008 29.002 119.796 29.5673 120.625 30.1194C121.453 30.6679 122.279 31.2275 123.101 31.7983C123.927 32.3729 124.678 32.9661 125.354 33.578C126.031 34.1898 126.728 34.8316 127.445 35.5031C128.158 36.1784 128.745 36.8033 129.204 37.3779C129.66 37.9487 130.041 38.486 130.345 38.9896C130.649 39.4933 130.925 40.0567 131.173 40.6797C131.419 41.3028 131.597 41.9016 131.709 42.4761C131.817 43.047 131.884 43.6439 131.909 44.267C131.934 44.8863 131.814 45.6661 131.55 46.6062C131.29 47.5464 130.913 48.4362 130.419 49.2757C129.926 50.1114 129.665 50.5647 129.637 50.6356C129.609 50.7065 129.572 50.7699 129.525 50.8259C129.479 50.8856 129.426 50.9322 129.367 50.9658C129.308 51.0031 129.246 51.0273 129.181 51.0385C129.116 51.0497 129.051 51.0479 128.985 51.0329C128.92 51.018 128.86 50.9919 128.804 50.9546C128.745 50.9173 128.694 50.8688 128.65 50.8091C128.607 50.7494 128.571 50.6841 128.543 50.6132C128.515 50.5386 128.5 50.4621 128.497 50.3838C128.49 50.3054 128.495 50.2271 128.511 50.1487C128.526 50.0741 128.551 50.0032 128.585 49.9361C128.619 49.8689 128.663 49.8092 128.715 49.757C128.765 49.7085 128.821 49.6693 128.883 49.6394C128.945 49.6133 129.009 49.5984 129.074 49.5947C129.139 49.5909 129.204 49.6003 129.269 49.6227C129.332 49.645 129.389 49.6805 129.442 49.729C129.498 49.7738 129.544 49.8279 129.581 49.8913C129.622 49.9547 129.651 50.0256 129.67 50.1039C129.692 50.1786 129.701 50.255 129.698 50.3334C129.698 50.4117 129.687 50.4882 129.665 50.5628C129.64 50.6375 129.608 50.7065 129.567 50.7699C129.527 50.8333 129.479 50.8856 129.423 50.9266C129.37 50.9714 129.311 51.0031 129.246 51.0217C129.181 51.0404 129.116 51.0479 129.051 51.0441C128.985 51.0367 128.922 51.018 128.86 50.9882C128.801 50.9583 128.747 50.9173 128.697 50.865C128.647 50.8128 128.605 50.7512 128.571 50.6804C128.54 50.6132 128.518 50.5405 128.506 50.4621C128.49 50.3838 128.487 50.3054 128.497 50.2271C128.506 50.1487 128.511 50.1095 128.511 50.1095C128.511 50.1095 128.49 49.6152 128.45 48.6265C128.41 47.6378 128.421 46.8637 128.483 46.304C128.548 45.7444 128.528 45.1288 128.422 44.4572C128.317 43.7857 128.191 43.2596 128.045 42.8791C127.896 42.4948 127.719 42.1273 127.514 41.7766C127.31 41.4296 127.046 41.0435 126.723 40.6182C126.4 40.1928 125.891 39.65 125.196 38.9896C124.498 38.3255 123.874 37.7379 123.325 37.2268C122.775 36.7119 122.1 36.1747 121.3 35.615C120.499 35.0517 119.65 34.4678 118.753 33.8634C117.857 33.2627 117.012 32.6527 116.221 32.0334C115.43 31.4141 114.59 30.6996 113.703 29.89C112.815 29.0804 112.166 28.3081 111.757 27.5731C111.347 26.8344 111.088 26.0304 110.979 25.1611C110.871 24.2955 110.945 23.5158 111.203 22.8218C111.46 22.1242 111.806 21.5328 112.241 21.0478C112.672 20.559 113.167 20.1244 113.726 19.7439C114.281 19.3633 114.851 18.9977 115.434 18.647C116.015 18.3 116.604 17.9437 117.203 17.5781C117.802 17.2124 118.387 16.9046 118.958 16.6547C119.529 16.401 120.153 16.0428 120.83 15.5802C121.506 15.1176 122.121 14.875 122.673 14.8527C123.225 14.8265 123.334 14.7613 122.999 14.6568C122.667 14.5523 122.208 14.487 121.621 14.4609C121.031 14.4385 120.361 14.4031 119.61 14.3546C118.856 14.3061 118.058 14.2315 117.217 14.1307C116.376 14.0337 115.44 13.9964 114.41 14.0188C113.377 14.0449 112.272 14.0953 111.096 14.1699C109.919 14.2408 108.669 14.3676 107.344 14.5505C106.022 14.7295 104.946 14.9179 104.118 15.1157C103.289 15.3172 102.53 15.485 101.841 15.6194C101.149 15.7537 100.778 15.8302 100.729 15.8488C100.679 15.8637 100.628 15.8731 100.575 15.8768C100.528 15.8805 100.479 15.8768 100.426 15.8656C100.376 15.8507 100.328 15.8301 100.282 15.804C100.235 15.7779 100.192 15.7443 100.151 15.7033C100.111 15.666 100.075 15.6212 100.044 15.569C100.01 15.5205 99.9838 15.4683 99.9652 15.4123C99.9434 15.3526 99.9295 15.2929 99.9233 15.2332C99.9139 15.1698 99.9108 15.1101 99.9139 15.0541C99.917 14.9907 99.9279 14.9291 99.9465 14.8694C99.962 14.8098 99.9838 14.7538 100.012 14.7016C100.04 14.6493 100.072 14.6008 100.109 14.5561C100.147 14.515 100.187 14.4777 100.23 14.4441C100.277 14.4143 100.3 14.3994 100.3 14.3994Z" fill="white"/>
<path d="M10 60.4472C33.0261 55.7308 48.8912 54.816 72 56C84.1816 56.6241 103.883 58.1763 116 61" stroke="white" stroke-width="2" stroke-linecap="round"/>
</g>
<defs>
<clipPath id="clip0_120_34">
<rect width="135" height="61" fill="white"/>
</clipPath>
</defs>
</svg>
