<svg width="128" height="128" viewBox="0 0 128 128" fill="none" xmlns="http://www.w3.org/2000/svg">
<path fill-rule="evenodd" clip-rule="evenodd" d="M101.492 92.768C101.919 92.3413 102.345 91.616 102.772 90.592C104.479 87.3493 105.631 83.7653 106.228 79.84C106.655 78.304 106.868 76.7253 106.868 75.104C106.868 73.3973 106.911 71.7333 106.996 70.112V65.376V59.744C106.996 57.8667 106.953 56.288 106.868 55.008C106.868 54.0693 106.825 53.1307 106.74 52.192C106.74 51.2533 106.697 50.3147 106.612 49.376L106.228 46.944C106.228 46.0907 106.1 45.3653 105.844 44.768C105.076 41.6107 103.924 38.5813 102.388 35.68C101.449 33.632 100.383 32.0107 99.188 30.816C95.2626 26.3787 90.5693 23.0507 85.108 20.832C84.6813 20.4907 84.1266 20.2347 83.444 20.064C82.8466 19.808 82.2066 19.6373 81.524 19.552H81.268C81.268 19.4667 81.2253 19.424 81.14 19.424C79.9453 18.9973 78.8787 18.7413 77.94 18.656L75.38 18.144C74.612 17.9733 73.8013 17.8453 72.948 17.76L70.772 17.376H70.004C69.8333 17.2907 69.62 17.2907 69.364 17.376C69.0226 17.2907 68.6386 17.248 68.212 17.248H67.06C66.9747 17.1627 66.8466 17.12 66.676 17.12H63.988C48.628 17.12 37.108 21.472 29.428 30.176C28.148 31.456 27.124 32.864 26.356 34.4C24.052 38.0693 22.516 42.2507 21.748 46.944C21.748 47.0293 21.7053 47.1147 21.62 47.2V47.584C21.364 48.7787 21.1933 50.016 21.108 51.296V55.008V56.032C21.0226 57.6533 20.98 59.36 20.98 61.152V66.272V71.264C20.98 73.2267 21.0653 75.232 21.236 77.28C21.4066 79.328 21.6626 80.992 22.004 82.272L22.516 83.808L23.028 85.344V85.472L23.796 87.264C24.052 88.1173 24.3506 89.0133 24.692 89.952C25.1186 90.8907 25.6306 91.7013 26.228 92.384C29.6413 97.8453 34.4626 101.984 40.692 104.8C46.9213 107.616 54.26 109.109 62.708 109.28H62.836L63.604 113.248C63.6893 113.589 63.732 114.059 63.732 114.656C63.8173 115.339 63.9026 115.509 63.988 115.168C64.1586 114.741 64.244 114.101 64.244 113.248V111.072C64.3293 110.475 64.4146 110.432 64.5 110.944C64.8413 112.309 64.9693 113.675 64.884 115.04C64.884 116.405 64.9267 117.771 65.012 119.136C65.0973 119.477 65.1827 119.947 65.268 120.544C65.3533 121.227 65.4387 121.397 65.524 121.056C65.6946 119.605 65.78 118.112 65.78 116.576C65.78 115.125 65.8653 113.632 66.036 112.096C66.036 112.011 66.0787 112.011 66.164 112.096C66.3346 112.181 66.4627 112.267 66.548 112.352C67.4866 112.608 68.1693 112.608 68.596 112.352H69.364C69.62 112.437 70.0466 112.523 70.644 112.608H71.412C71.668 112.693 71.924 112.736 72.18 112.736H72.692C72.8626 112.309 72.948 111.797 72.948 111.2C73.0333 110.688 73.1187 110.219 73.204 109.792C73.3746 110.133 73.5453 110.432 73.716 110.688C73.8867 111.029 74.1 111.413 74.356 111.84C74.612 112.267 74.9106 112.608 75.252 112.864C75.4226 113.12 75.5507 113.504 75.636 114.016C75.8066 114.613 76.02 114.997 76.276 115.168C76.4466 115.339 76.6173 115.339 76.788 115.168C76.9586 114.997 77.1293 114.656 77.3 114.144C77.556 113.717 77.7267 113.419 77.812 113.248L78.324 112.736C78.4946 112.651 78.6227 112.523 78.708 112.352L78.964 112.096C79.3907 111.584 79.7747 111.072 80.116 110.56C80.5427 110.048 80.9267 109.536 81.268 109.024C81.4387 110.389 81.524 111.712 81.524 112.992C81.6093 114.357 81.6946 115.68 81.78 116.96C81.78 117.131 81.8227 117.301 81.908 117.472C82.0787 117.643 82.2066 117.813 82.292 117.984C82.4627 118.325 82.7613 118.88 83.188 119.648C83.6147 120.501 84.1267 120.885 84.724 120.8C84.8947 120.715 85.0653 120.587 85.236 120.416C85.492 120.245 85.6627 120.117 85.748 120.032C86.1747 119.435 86.516 118.752 86.772 117.984L87.54 115.936C88.1373 114.485 88.692 112.992 89.204 111.456C89.716 109.92 90.228 108.427 90.74 106.976C90.996 106.123 91.3373 105.184 91.764 104.16C92.1907 103.136 92.7027 102.283 93.3 101.6C93.4707 103.051 93.556 104.587 93.556 106.208C93.6413 107.744 93.7267 109.237 93.812 110.688C93.812 111.285 93.7693 112.096 93.684 113.12C93.684 114.144 93.8547 114.443 94.196 114.016C94.6227 113.333 94.7933 112.565 94.708 111.712C94.6227 110.944 94.6227 110.176 94.708 109.408C94.7933 107.787 94.836 106.208 94.836 104.672L95.092 100.064L97.396 98.016C98.3346 97.0773 99.188 96.096 99.956 95.072L101.492 92.768ZM60.276 83.808C59.6786 83.296 59.124 82.6987 58.612 82.016C58.1853 81.3333 57.8013 80.6507 57.46 79.968C57.1186 79.2 56.7773 78.3893 56.436 77.536L56.052 76.512C55.4886 74.54 55.0705 72.7715 54.7977 71.2064C50.5467 75.0958 46.651 78.5162 43.7217 81.0881C43.2069 81.5402 42.7219 81.966 42.27 82.3636C45.3116 79.096 49.7818 74.0042 54.4303 68.6196C54.4162 68.5185 54.4021 68.4187 54.388 68.32V66.272V56.416V54.24C54.4733 53.472 54.516 52.8747 54.516 52.448L55.028 49.376C55.1987 48.2667 55.5826 47.1573 56.18 46.048C56.6067 45.3653 56.948 44.9387 57.204 44.768L57.844 44.128V44H57.972C58.0824 44.0368 58.1531 44.0577 58.1841 44.0628C58.1977 44.0827 58.2123 44.1045 58.228 44.128C58.5693 44.4693 58.74 44.6827 58.74 44.768H58.868L59.38 45.28C59.7213 45.4507 59.8493 45.536 59.764 45.536L60.276 45.792C60.4466 45.8773 60.5746 46.0053 60.66 46.176C61.0867 46.7733 61.2146 47.1573 61.044 47.328C60.9586 47.4987 61.2146 47.584 61.812 47.584C62.4946 47.6693 62.836 47.5413 62.836 47.2C62.836 46.8587 63.0066 46.4747 63.348 46.048C63.4333 45.8773 63.6466 45.7067 63.988 45.536L64.756 45.152C65.012 44.896 65.3533 44.5973 65.78 44.256C66.2066 43.9147 66.5906 43.7013 66.932 43.616C67.1026 43.616 67.188 43.6587 67.188 43.744H67.444C67.7 43.6587 67.8707 43.5733 67.956 43.488C68.0413 43.4027 68.1267 43.36 68.212 43.36C68.6386 43.36 68.9373 43.4027 69.108 43.488C69.1933 43.488 69.4067 43.5733 69.748 43.744L69.876 43.872C70.5587 44.4693 71.156 45.152 71.668 45.92C71.989 46.348 72.2597 46.8431 72.4801 47.4053C73.6892 45.9678 74.4212 45.0941 74.494 45.0072C74.5019 44.9977 74.502 44.9975 74.5022 44.9974C74.5023 44.9973 74.5025 44.9972 74.5106 44.9879C75.0288 44.3928 94.3464 22.2472 83 40.5C80.6474 44.2845 77.2905 48.4667 73.46 52.7167V53.984C73.5453 55.008 73.588 56.0747 73.588 57.184V60.256V69.088C73.5027 70.112 73.4173 71.3493 73.332 72.8C73.332 74.1653 73.1613 75.5733 72.82 77.024L72.436 78.432C72.2653 79.0293 72.0093 79.6267 71.668 80.224C71.3266 80.8213 70.9426 81.3333 70.516 81.76C69.492 82.8693 68.1693 83.6373 66.548 84.064C66.292 84.1493 65.9933 84.192 65.652 84.192C65.396 84.192 65.14 84.2347 64.884 84.32H63.348C62.1533 84.1493 61.1293 83.9787 60.276 83.808ZM58.1643 44.0337C58.0479 43.8643 58.0265 43.853 58.1 44C58.1266 44.0133 58.1481 44.0246 58.1643 44.0337ZM42.27 82.3636C40.3035 84.4762 38.9342 85.8264 38.5 86C37.9096 86.2362 39.4385 84.855 42.27 82.3636Z" fill="white"/>
</svg>
