<svg width="85" height="85" viewBox="0 0 85 85" fill="none" xmlns="http://www.w3.org/2000/svg">
<path d="M45.6369 72.7397C44.4144 73.1075 42.5042 73.4485 39.201 73.8887C38.6588 73.9609 37.901 74.0005 37.5171 73.9766C36.5685 73.9176 36.689 74.0336 37.7792 74.2287C39.0356 74.4536 38.721 74.5351 37.1014 74.4043C34.651 74.2064 33.3975 73.9004 30.1458 72.7061C25.9502 71.1652 24.0823 69.9889 20.1248 66.3951C19.8778 66.1709 18.9376 65.1614 18.0355 64.1519C17.1334 63.1423 16.5579 62.5737 16.7565 62.8883C16.9552 63.2028 17.1681 63.729 17.2297 64.0576C17.3299 64.5915 17.2463 64.5217 16.4433 63.4005C15.9491 62.7105 15.1974 61.5434 14.7727 60.807C13.9145 59.3186 11.6997 53.923 11.437 52.6806C10.0925 46.322 9.83399 43.5807 10.2104 39.6758C10.4519 37.1709 11.2273 32.5431 11.6083 31.3326C13.027 26.8253 16.9635 20.6196 20.8009 16.8409C25.0955 12.6121 31.3145 9.64377 36.7029 9.25077C38.4682 9.12202 38.0833 9.42319 36.2374 9.61512C35.2446 9.71833 34.3179 9.87611 34.1779 9.96573C34.038 10.0553 34.5489 10.0413 35.3132 9.93451C37.2519 9.66365 39.7521 9.56406 39.6971 9.75991C39.6719 9.84979 39.525 9.89389 39.3707 9.85785C38.9133 9.751 36.3303 10.0273 36.0086 10.2175C35.8453 10.314 35.5591 10.3957 35.3725 10.3991C33.655 10.4306 30.5543 11.4309 28.1963 12.7143L26.1406 13.8332L27.844 13.0247C29.821 12.0863 31.4561 11.4723 32.1848 11.3947L32.6975 11.3401L32.3651 11.682C32.1112 11.9431 32.4878 11.9016 33.96 11.506C35.02 11.2212 36.1707 10.9146 36.517 10.8245C37.2084 10.6448 38.6664 10.8586 38.8145 11.1615C38.8949 11.3263 39.336 11.3323 40.6056 11.1862C40.7601 11.1684 41.1669 11.1861 41.5097 11.2254C41.8525 11.2648 42.4908 11.3042 42.9281 11.3129C44.3246 11.3408 45.5385 11.5746 47.2944 12.1538C48.8769 12.6759 51.1038 13.6775 50.276 13.4949C50.0766 13.4509 50.6511 14.0201 51.5528 14.7599C52.8128 15.7936 53.2127 16.2225 53.281 16.6133C53.3298 16.893 53.3231 17.0378 53.2659 16.9352C53.2088 16.8325 52.5283 16.4774 51.7538 16.146C50.9792 15.8146 50.0159 15.3596 49.6131 15.1349C49.2103 14.9102 48.7566 14.7997 48.6049 14.8893C48.3171 15.0595 47.2517 14.712 45.671 13.9325C44.6377 13.423 43.8992 13.2463 44.032 13.5405C44.0784 13.6435 44.1817 13.6891 44.2615 13.642C44.3412 13.5948 44.5287 13.6962 44.6782 13.8672C44.8276 14.0381 46.2052 14.6679 47.7394 15.2666C51.1165 16.5844 54.0885 18.3597 55.6319 19.9809C56.2391 20.6187 56.9131 21.2464 57.1296 21.3757C57.3462 21.505 57.6091 21.8153 57.7139 22.0653C57.8797 22.4607 57.8273 22.4489 57.3113 21.9744C56.9255 21.6197 56.7323 21.5378 56.7587 21.7401C56.7851 21.9429 56.5137 21.8294 55.9789 21.414L55.1587 20.7769L55.6206 21.5698C56.123 22.4323 56.1119 22.6306 55.5883 22.1498C55.3097 21.894 55.3143 21.9369 55.616 22.407C55.8827 22.8227 55.9088 22.9463 55.715 22.8761C55.5703 22.8237 55.2918 22.4866 55.0961 22.127C54.0799 20.2597 52.6399 18.791 50.381 17.3177C49.6861 16.8645 48.8564 16.2947 48.537 16.0515C48.2177 15.8083 47.6428 15.5058 47.2594 15.3794L46.5624 15.1494L47.0188 15.6338C47.2697 15.9002 47.6936 16.292 47.9606 16.5044C48.2276 16.7169 48.6285 17.1615 48.8515 17.4925C49.1861 17.9893 49.212 18.121 48.9998 18.2464C48.691 18.4289 45.9785 17.8531 45.8546 17.5787C45.8068 17.4727 46.0265 17.4694 46.3432 17.5719C46.6598 17.6742 46.9363 17.6955 46.9577 17.6194C46.9927 17.4946 43.3953 16.2911 42.8467 16.2441C42.722 16.2334 42.5498 16.3146 42.464 16.4245C42.3782 16.5344 41.835 16.6442 41.2569 16.6685C40.6788 16.6927 40.1409 16.7509 40.0617 16.7977C39.9825 16.8446 38.9968 16.8769 37.8714 16.8696C36.7459 16.8623 35.6424 16.966 35.4192 17.1001C35.1962 17.2346 34.2484 17.5147 33.3133 17.7234C31.722 18.0786 31.4295 18.2116 28.7374 19.8048C25.811 21.5364 24.8288 22.3306 23.4695 24.0626C23.1943 24.4131 22.6646 24.9087 22.2922 25.1638C21.588 25.6461 21.593 25.632 22.5858 24.3289C23.3743 23.294 22.8636 23.5105 21.9096 24.6156C20.9011 25.7837 19.2206 28.3961 19.3266 28.6309C19.4343 28.8696 19.489 28.8038 20.4917 27.2298C21.0042 26.4254 21.4631 25.7816 21.5115 25.7991C21.5599 25.8166 21.2034 26.4709 20.7192 27.253C20.2351 28.0351 19.6276 29.0905 19.3693 29.5984C19.111 30.1063 18.7792 30.5685 18.6319 30.6255C18.4846 30.6825 18.3282 30.925 18.2842 31.1643C18.2147 31.5425 18.2259 31.5617 18.3694 31.3107C18.4677 31.1385 18.5115 31.1179 18.4777 31.2597C18.4464 31.3905 18.3409 31.5494 18.2431 31.6128C18.1455 31.6766 18.141 31.8303 18.2334 31.9551C18.3259 32.08 18.3263 32.1549 18.2343 32.1216C17.9207 32.0081 16.3592 36.3257 16.0694 38.1076C15.6158 40.8967 15.5967 45.1229 16.0272 47.4477C16.5782 50.4236 17.1231 52.1502 18.3985 54.9611C19.5011 57.3912 19.7997 57.9064 21.0187 59.4825C21.7754 60.4608 22.6373 61.4937 22.9341 61.7779C23.231 62.062 23.4861 62.4228 23.5011 62.5796C23.5628 63.2262 27.3043 66.2214 29.6776 67.5242C34.3238 70.0746 40.7902 70.5346 46.1764 68.6981C49.1293 67.6912 50.6901 66.9152 52.5841 65.5122C55.5217 63.3361 57.4841 61.4031 58.7227 59.4654C59.0307 58.9837 59.3427 58.6113 59.4162 58.6379C59.4896 58.6645 59.4681 58.7345 59.3683 58.7935C59.2685 58.8525 59.2337 59.0045 59.291 59.1313C59.3482 59.2581 59.1424 59.735 58.8337 60.191C58.5249 60.6471 58.1264 61.2696 57.9482 61.5744C57.7699 61.8792 57.3039 62.5161 56.9126 62.9896C56.5213 63.4631 56.195 63.9386 56.1876 64.0461C56.1801 64.1536 55.5512 64.8224 54.7901 65.5323C53.039 67.1656 49.2647 69.6342 47.1886 70.5041C45.2272 71.326 45.1449 71.3548 44.9534 71.2854C44.8633 71.2528 44.5913 71.3434 44.349 71.4866C44.1067 71.6298 43.8785 71.6806 43.8419 71.5994C43.8052 71.5182 43.6715 71.5131 43.5446 71.5881C43.4178 71.663 43.0269 71.7298 42.676 71.7365C42.325 71.7432 41.2629 71.7946 40.3156 71.8508C39.3684 71.9069 38.1644 71.9078 37.64 71.8526C37.1157 71.7974 36.6016 71.8026 36.4976 71.864C36.2092 72.0345 33.1894 71.4404 31.5342 70.8875C29.0964 70.0732 24.6512 67.6623 24.775 67.2216C24.792 67.1609 25.1063 67.3365 25.4735 67.6118C25.8406 67.8871 26.1786 68.0901 26.2246 68.0629C26.2705 68.0357 25.9768 67.7802 25.5718 67.495C25.1668 67.2099 24.7717 67.039 24.6938 67.1153C24.6159 67.1916 24.1977 66.9625 23.7645 66.6062C22.9179 65.9099 22.5574 65.4357 23.3301 66.0349C24.0985 66.6306 23.9201 66.2167 23.0729 65.4379C22.3045 64.7315 22.2912 64.7283 22.5605 65.3133C22.7125 65.6436 22.8452 66.1023 22.8553 66.3325C22.8685 66.6321 22.9091 66.6841 22.9979 66.5155C23.1084 66.3057 23.2904 66.4584 23.409 66.8605C23.4314 66.9367 24.1562 67.4964 25.0195 68.1043C28.2031 70.3461 31.4845 71.7295 35.2144 72.4024C36.1744 72.5756 37.1124 72.7608 37.2989 72.8141C37.4854 72.8673 38.452 72.9467 39.4468 72.9905C41.3353 73.0736 43.041 72.8758 44.9687 72.3502C46.746 71.8657 47.2884 71.7881 47.2723 72.0207C47.2642 72.139 47.205 72.2553 47.1409 72.279C47.0768 72.3028 46.4 72.5101 45.6369 72.7397ZM20.8575 63.2586C19.379 61.5207 17.4902 58.6031 16.2576 56.153C15.5544 54.7552 14.9647 53.6623 14.9473 53.7243C14.8824 53.9554 16.7311 57.8159 17.5229 59.1029C18.7404 61.0817 21.3711 64.4102 21.4619 64.0867C21.4756 64.038 21.2036 63.6654 20.8575 63.2586ZM16.2178 62.4774C16.1197 62.3811 16.1294 62.5017 16.2393 62.7452C16.3492 62.9888 16.4295 63.0676 16.4176 62.9203C16.4058 62.773 16.3159 62.5737 16.2178 62.4774ZM15.7499 61.1984C15.6025 61.145 15.6333 61.2741 15.8372 61.5634C16.0708 61.8949 16.1301 61.9163 16.0654 61.646C16.0175 61.4453 15.8755 61.2438 15.7499 61.1984ZM15.3465 60.538C15.2331 60.426 15.2152 60.4898 15.3009 60.7006C15.3784 60.8913 15.4624 60.9742 15.4875 60.8848C15.5126 60.7954 15.4491 60.6393 15.3465 60.538ZM12.0242 52.8945C11.6432 51.8228 11.6192 51.7873 11.8074 52.5739C11.9239 53.0605 12.6212 54.8699 13.3571 56.5948L14.695 59.731L13.5739 56.9154C12.9572 55.3669 12.2599 53.5575 12.0242 52.8945ZM46.7262 16.6731C46.6294 16.6069 46.4802 16.5941 46.3947 16.6447C46.3092 16.6952 46.3184 16.7907 46.4152 16.8569C46.512 16.9231 46.6613 16.9359 46.7468 16.8853C46.8323 16.8348 46.8231 16.7393 46.7262 16.6731ZM40.8997 15.7654C40.8824 15.7271 40.7382 15.7125 40.5793 15.733C40.4136 15.7543 40.3646 15.8209 40.4644 15.8891C40.6317 16.0034 40.9644 15.9089 40.8997 15.7654ZM28.9351 13.042C28.4733 13.2189 27.7471 13.5739 27.3215 13.831C26.5962 14.269 26.5855 14.2863 27.1507 14.1071C27.4824 14.002 28.2085 13.6469 28.7643 13.3182L29.7749 12.7204L28.9351 13.042ZM32.624 10.3044C32.2239 10.3782 31.7567 10.5213 31.5856 10.6224C31.4146 10.7235 31.602 10.7459 32.002 10.6721C32.4021 10.5983 32.8693 10.4552 33.0404 10.3541C33.2114 10.253 33.0241 10.2307 32.624 10.3044ZM25.2663 14.6236C25.1372 14.6376 24.9622 14.741 24.8775 14.8534C24.7928 14.9657 24.8984 14.9542 25.1122 14.8279C25.326 14.7015 25.3953 14.6095 25.2663 14.6236ZM23.4215 15.0461C23.508 14.7999 22.3819 15.6091 22.244 15.8922C22.1368 16.1122 22.2856 16.0475 22.7381 15.6776C23.0942 15.3865 23.4017 15.1023 23.4215 15.0461ZM30.863 10.8678C30.7358 10.8815 30.5246 11.0027 30.3935 11.1368C30.2625 11.2712 30.3665 11.26 30.6247 11.1119C30.8828 10.9636 30.9902 10.8541 30.863 10.8678ZM29.3136 11.4801C28.8954 11.6337 28.5185 11.869 28.4761 12.0032C28.4309 12.1465 28.7448 12.0312 29.2365 11.724L30.074 11.2009L29.3136 11.4801ZM25.0199 13.8595C24.7664 13.958 24.3815 14.1855 24.1647 14.365C23.9478 14.5446 24.1552 14.4641 24.6256 14.1861C25.0959 13.908 25.2734 13.7611 25.0199 13.8595ZM26.5769 12.9451C26.4072 12.989 26.1623 13.1338 26.0327 13.2668C25.9032 13.3998 26.0421 13.3639 26.3414 13.187C26.6407 13.01 26.7467 12.9012 26.5769 12.9451ZM30.5584 74.4639C30.5118 74.3608 30.5659 74.2843 30.6786 74.2939C30.7913 74.3035 30.8994 74.3466 30.9188 74.3896C30.9382 74.4325 30.8841 74.5091 30.7986 74.5596C30.7131 74.6102 30.605 74.5671 30.5584 74.4639ZM30.071 73.6994C28.6177 73.1406 26.5677 72.1272 25.2544 71.3183C23.8735 70.4678 21.039 68.2217 19.9098 67.0831C19.331 66.4996 18.9948 66.2187 19.1627 66.4589C19.3305 66.6991 19.4379 66.9133 19.4014 66.9349C19.297 66.9965 17.7065 65.197 17.5848 64.8796C17.5247 64.723 17.8056 64.9553 18.2088 65.3958C18.6121 65.8362 18.8091 65.9974 18.6467 65.754C18.4843 65.5106 18.2171 65.1132 18.0529 64.8708C17.8888 64.6284 18.154 64.8503 18.6422 65.364C22.8611 69.8024 25.6534 71.7694 30.2038 73.5087C30.9964 73.8116 31.5883 74.0928 31.5192 74.1336C31.4502 74.1744 30.7985 73.979 30.071 73.6994ZM28.8904 73.8509C27.7195 73.4049 26.1381 72.5916 26.6724 72.7103C27.2085 72.8294 30.065 74.0956 29.9504 74.1634C29.8987 74.1939 29.4217 74.0533 28.8904 73.8509ZM27.7659 65.9736C27.3779 65.768 27.0864 65.5338 27.1626 65.4887C27.2006 65.4663 27.4362 65.5794 27.6862 65.7402C28.154 66.041 28.2117 66.2097 27.7659 65.9736ZM17.4463 64.1447C17.3607 63.934 17.3786 63.8702 17.492 63.9822C17.5946 64.0835 17.658 64.2396 17.6329 64.329C17.6078 64.4183 17.5239 64.3355 17.4463 64.1447ZM59.3483 28.2117C59.1896 28.1351 58.5993 27.2446 58.0364 26.2328C57.4735 25.221 56.8674 24.1763 56.6895 23.9112C56.3843 23.4566 56.3863 23.4482 56.7243 23.7625C56.9214 23.9458 57.339 24.5573 57.6523 25.1214C57.9656 25.6855 58.5549 26.591 58.9617 27.1337C59.7333 28.163 59.8351 28.4466 59.3483 28.2117ZM16.48 47.1795C16.348 46.9125 16.2005 45.2175 16.3129 45.2581C16.3583 45.2745 16.4382 45.7617 16.4905 46.3405C16.5428 46.9194 16.5381 47.297 16.48 47.1795ZM42.8192 17.019C42.499 16.8524 42.5016 16.8429 42.8477 16.9174C43.2112 16.9957 43.3592 17.0925 43.2312 17.1682C43.1989 17.1872 43.0135 17.1201 42.8192 17.019ZM44.7782 10.6099C44.0397 10.413 43.0924 10.2808 42.6731 10.3161C42.0088 10.3721 41.0608 10.1482 41.318 9.99611C41.4858 9.89695 42.856 9.86773 43.2872 9.95412C43.9276 10.0824 46.2859 10.865 46.1978 10.9199C46.1557 10.9466 45.5167 10.8068 44.7782 10.6099ZM41.8275 10.8258C41.6608 10.8095 41.544 10.7261 41.5681 10.6405C41.5921 10.5549 41.7551 10.554 41.9303 10.6386C42.2936 10.8139 42.2637 10.8683 41.8275 10.8258ZM40.8935 9.4493C40.4842 9.35609 40.4846 9.35168 40.9043 9.33857C41.1447 9.33106 41.3581 9.36196 41.3785 9.40725C41.4397 9.5428 41.3414 9.55133 40.8935 9.4493ZM38.0334 10.4743C37.8045 10.4296 37.64 10.3119 37.6679 10.2126C37.6958 10.1134 37.8966 10.0817 38.114 10.1418C38.3315 10.202 38.6342 10.2333 38.7867 10.2112C38.9834 10.1827 38.9748 10.2269 38.7568 10.3632C38.5879 10.4691 38.2623 10.5189 38.0334 10.4743ZM36.4572 10.5053C35.9698 10.5219 35.9462 10.5051 36.3121 10.402C36.5524 10.3343 36.8474 10.3104 36.9677 10.3489C37.2661 10.4443 37.1429 10.482 36.4572 10.5053ZM37.0378 8.73663C36.6189 8.76871 35.8301 8.93235 35.2847 9.10028C34.2405 9.42189 33.6996 9.33821 34.3475 8.95526C34.7035 8.74481 37.9412 8.3378 38.0119 8.4946C38.0669 8.61633 37.8255 8.67633 37.0378 8.73663Z" fill="white"/>
<path d="M55.6351 38.6975C55.3631 38.9182 55.1263 39.2029 54.9246 39.5517C54.3717 40.5008 53.8189 41.7456 53.266 43.2861L51.2829 49.1456C51.2228 49.2969 51.1867 49.462 51.1747 49.6408C51.1507 50.0259 51.2468 50.356 51.4631 50.6311C51.6915 50.9062 51.98 51.0438 52.3285 51.0438C52.7011 51.0438 52.9775 50.9544 53.1578 50.7755C53.3501 50.583 53.5064 50.3423 53.6266 50.0534L55.3393 44.6891C55.4332 44.4136 56.119 44.2302 56.21 43.9711C56.1406 43.8546 55.4756 43.6335 55.4139 43.4735C54.8255 43.9711 55.2028 42.5964 55.2496 42.0724C54.9092 41.237 55.0984 40.352 55.2832 39.7283C55.3837 39.3891 55.513 39.0333 55.6327 38.704L55.6351 38.6975Z" fill="white"/>
<path d="M58.1276 46.2159H59.7202L59.2514 44.6891C59.0591 44.1252 58.8668 43.5956 58.6745 43.1004C58.4943 42.5915 57.3359 43.1004 58.0435 41.7181C57.8272 41.3055 57.5808 41.0854 57.3044 41.0579C57.1763 41.0701 57.0542 41.1203 56.938 41.2084C56.9119 41.1646 56.8526 41.0108 57.0315 40.4068C57.1106 40.14 57.2134 39.8568 57.3359 39.5193L57.3901 39.3697C57.8715 39.0153 56.5503 38.4973 56.6716 38.0662C57.4713 38.2027 59.2127 38.7676 59.6661 39.5517C60.219 40.4733 60.7719 41.7181 61.3247 43.2861L63.3079 49.1456C63.368 49.2969 63.404 49.462 63.416 49.6408C63.4401 50.0259 63.3379 50.356 63.1095 50.6311C62.8932 50.9062 62.6108 51.0438 62.2622 51.0438C61.8656 51.0438 61.5711 50.9544 61.3788 50.7755C61.1985 50.583 61.0483 50.3423 60.9281 50.0534L60.5856 48.9806H57.4133C57.4764 48.5836 57.5979 48.1916 57.8715 47.774C57.9679 47.6269 58.0291 47.4536 58.049 47.2712C58.0909 46.8882 58.1166 46.5378 58.1276 46.2159Z" fill="white"/>
<path d="M56.6716 46.0838C56.6127 46.1318 56.1505 46.5667 56.0965 46.6285C55.8681 46.8898 55.7539 47.2131 55.7539 47.5982C55.7539 47.6831 55.7598 47.765 55.7714 47.8439C55.8779 47.4934 56.457 47.5119 56.6716 47.1402C56.6808 47.0393 56.6654 46.1757 56.6716 46.0838Z" fill="white"/>
<path d="M34.9274 38.0662C35.3481 38.0662 35.7567 38.1488 36.1534 38.3138C36.562 38.4789 36.9526 38.7196 37.3252 39.0359C37.3853 39.1047 37.4514 39.1735 37.5235 39.2423C37.5836 39.1735 37.6497 39.1047 37.7218 39.0359C38.0944 38.7196 38.479 38.4789 38.8757 38.3138C39.2843 38.1488 39.693 38.0662 40.1016 38.0662C40.5223 38.0662 40.9309 38.1488 41.3275 38.3138C41.7362 38.4789 42.1208 38.7265 42.4814 39.0566C42.8539 39.3729 43.1785 39.7993 43.4549 40.3358C43.7434 40.8722 43.8876 41.5118 43.8876 42.2545V49.7027C43.8155 50.528 42.6977 47.1402 42.6977 51.0438C42.3642 48.7247 42.0667 50.92 41.8143 50.6724C41.5739 50.411 41.4537 50.0878 41.4537 49.7027V42.4196C41.8143 38.3138 41.3996 41.8144 41.2915 41.5943C41.1833 41.3605 41.0631 41.1817 40.9309 41.0579C40.7987 40.9203 40.6605 40.824 40.5163 40.769C40.372 40.7003 40.2278 40.6659 40.0836 40.6659C39.9393 40.6659 39.7951 40.7003 39.6509 40.769C39.5187 40.824 39.3865 40.9203 39.2543 41.0579C39.122 41.1817 39.2543 38.1845 38.8937 41.5943C38.7855 41.8144 38.7254 42.0895 38.7134 42.4196V49.7027C38.6413 50.528 37.7489 48.7247 37.5235 51.0438C37.187 51.0438 36.8925 50.92 36.6401 50.6724C36.3997 50.411 36.2796 50.0878 36.2796 49.7027V42.4196C36.2796 42.0895 36.4023 39.0566 36.1173 41.5943C35.9028 39.7457 35.8889 41.1817 35.7567 41.0579C35.6245 40.9203 35.4863 40.824 35.3421 40.769C35.1979 40.7003 35.0536 40.6659 34.9094 40.6659C34.7652 40.6659 34.6209 40.7003 34.4767 40.769C34.3445 40.824 34.2123 40.9203 34.0801 41.0579C33.9479 41.1817 33.8277 41.3605 33.7195 41.5943C33.6113 41.8144 33.5512 42.0895 33.5392 42.4196V49.7027C33.4791 50.528 33.0885 50.975 32.3674 51.0438C32.0308 51.0438 31.7364 50.92 31.484 50.6724C32.3674 45.9277 31.1234 51.8938 31.1234 49.7027V42.2545C31.1475 41.5118 31.2977 40.8722 31.5741 40.3358C31.8506 39.7993 32.1751 39.3729 32.5477 39.0566C32.9203 38.7265 33.3049 38.4789 33.7015 38.3138C34.1101 38.1488 34.5188 38.0662 34.9274 38.0662Z" fill="white"/>
<path d="M72.0012 51.085C72.7223 51.0162 73.119 50.5692 73.1911 49.7439V41.9244C73.1911 41.5806 72.488 40.0469 73.6598 41.388C74.8317 42.7291 79.9878 41.388 79.9878 41.388C80.2162 41.4017 80.4025 41.4636 80.5467 41.5737C80.7029 41.67 80.8171 41.7869 80.8892 41.9244C80.9613 42.0482 81.5941 40.6645 81.5941 40.802C81.5941 40.9396 80.9613 42.5915 80.8892 42.7291C80.8171 42.8529 80.7029 42.9698 80.5467 43.0798C80.4025 43.1761 80.2162 43.2311 79.9878 43.2449H75.2283C74.8918 43.2449 75.2283 45.0275 75.2283 45.0275C75.2283 45.0275 74.6712 43.9711 74.0204 44.6272C74.0204 44.7785 74.1286 45.4731 74.3449 46.711C74.5011 47.8252 74.9398 48.788 75.661 49.5995C76.3821 50.411 77.1874 50.8099 78.0768 50.7962H82.2955C82.62 50.7824 82.8904 50.6517 83.1067 50.4042C83.3351 50.1428 81.6482 47.3733 83.4673 49.4551C85.2864 51.5369 85.8471 51.5802 83.1248 48.4648C80.4025 45.3493 82.632 48.0452 82.2955 48.0315H78.4013C77.9566 48.0315 77.59 47.8664 77.3016 47.5363C77.0011 47.2062 76.8028 46.6973 76.7066 46.0095H79.8796C80.721 45.982 81.4121 45.762 81.9529 45.3493C82.5058 44.9367 82.8964 44.469 83.1248 43.9464C83.3651 43.4099 83.4853 42.8666 83.4853 42.3164C83.4853 41.78 83.3651 41.2504 83.1248 40.7278C82.8844 40.1913 82.4938 39.7168 81.9529 39.3042C81.4121 38.8915 80.721 38.6714 79.8796 38.6439H79.7715C79.6994 38.6302 79.6272 38.6233 79.5551 38.6233C79.5551 38.6233 72.0012 40.2739 72.0012 38.6233C72.0012 36.9727 72.8251 37.0821 71.1358 39.0153C69.4466 40.9485 70.7692 39.5793 70.7572 39.9644V49.7439C70.7572 50.1291 70.8774 50.4523 71.1178 50.7136C71.3702 50.9612 71.6647 51.085 72.0012 51.085Z" fill="white"/>
</svg>
