<svg width="49" height="49" viewBox="0 0 49 49" fill="none" xmlns="http://www.w3.org/2000/svg">
<path d="M26.3577 41.9513C25.6674 42.159 24.5887 42.3516 22.7233 42.6001C22.4171 42.6409 21.9892 42.6633 21.7724 42.6498C21.2367 42.6165 21.3048 42.682 21.9205 42.7922C22.6299 42.9192 22.4523 42.9652 21.5377 42.8913C20.1539 42.7796 19.4461 42.6068 17.6098 41.9324C15.2405 41.0622 14.1857 40.3979 11.9509 38.3685C11.8114 38.2418 11.2805 37.6718 10.7711 37.1017C10.2616 36.5316 9.93662 36.2105 10.0488 36.3881C10.161 36.5658 10.2812 36.8629 10.316 37.0485C10.3726 37.35 10.3254 37.3106 9.87192 36.6774C9.59285 36.2877 9.16834 35.6287 8.92856 35.2129C8.44391 34.3723 7.19321 31.3254 7.04487 30.6238C6.28562 27.0331 6.13962 25.485 6.3522 23.2799C6.48856 21.8654 6.9264 19.2521 7.14156 18.5685C7.94271 16.0232 10.1657 12.5188 12.3327 10.3849C14.7579 7.9969 18.2698 6.32066 21.3127 6.09873C22.3095 6.02602 22.0922 6.1961 21.0498 6.30448C20.4891 6.36277 19.9658 6.45186 19.8868 6.50247C19.8078 6.55306 20.0963 6.54515 20.5279 6.48484C21.6227 6.33188 23.0346 6.27565 23.0035 6.38625C22.9893 6.437 22.9063 6.46191 22.8191 6.44155C22.5609 6.38121 21.1022 6.53723 20.9206 6.64463C20.8284 6.69912 20.6667 6.74529 20.5614 6.74722C19.5915 6.76496 17.8405 7.32986 16.5089 8.0546L15.3481 8.68644L16.31 8.22989C17.4264 7.69997 18.3498 7.35325 18.7612 7.30942L19.0508 7.27858L18.8631 7.47164C18.7197 7.6191 18.9324 7.59565 19.7637 7.37229C20.3623 7.21147 21.0121 7.03828 21.2077 6.98743C21.5981 6.88593 22.4215 7.0067 22.5051 7.17773C22.5505 7.27081 22.7996 7.2742 23.5165 7.19167C23.6038 7.18162 23.8335 7.19161 24.0271 7.21384C24.2207 7.23608 24.5811 7.2583 24.828 7.26323C25.6167 7.27896 26.3022 7.41099 27.2937 7.73811C28.1874 8.03293 29.4449 8.59854 28.9775 8.49542C28.8648 8.47057 29.1893 8.79202 29.6985 9.20974C30.41 9.7935 30.6358 10.0357 30.6744 10.2564C30.702 10.4143 30.6982 10.4961 30.6659 10.4382C30.6336 10.3802 30.2494 10.1796 29.812 9.9925C29.3746 9.80536 28.8306 9.54843 28.6031 9.42154C28.3756 9.29464 28.1194 9.23224 28.0338 9.28286C27.8713 9.37893 27.2696 9.18273 26.377 8.74254C25.7935 8.45479 25.3764 8.35505 25.4514 8.52117C25.4777 8.57931 25.536 8.60509 25.581 8.57847C25.6261 8.55184 25.732 8.60906 25.8163 8.70563C25.9007 8.80219 26.6786 9.15782 27.545 9.49591C29.4521 10.2401 31.1304 11.2426 32.002 12.1581C32.3449 12.5183 32.7255 12.8727 32.8477 12.9457C32.97 13.0188 33.1185 13.194 33.1777 13.3352C33.2713 13.5585 33.2417 13.5518 32.9503 13.2839C32.7325 13.0835 32.6234 13.0373 32.6383 13.1515C32.6532 13.2661 32.4999 13.202 32.1979 12.9674L31.7348 12.6076L31.9956 13.0553C32.2793 13.5424 32.273 13.6544 31.9774 13.3829C31.82 13.2384 31.8226 13.2627 31.993 13.5281C32.1436 13.7629 32.1584 13.8327 32.0489 13.793C31.9672 13.7635 31.8099 13.5731 31.6994 13.37C31.1255 12.3155 30.3124 11.4862 29.0368 10.6542C28.6444 10.3983 28.1758 10.0765 27.9955 9.93914C27.8151 9.80179 27.4905 9.63098 27.274 9.55958L26.8804 9.42975L27.1381 9.70328C27.2798 9.85372 27.5192 10.075 27.6699 10.1949C27.8207 10.3149 28.0471 10.566 28.173 10.7529C28.362 11.0334 28.3766 11.1078 28.2568 11.1786C28.0824 11.2817 26.5506 10.9565 26.4807 10.8016C26.4537 10.7417 26.5778 10.7398 26.7566 10.7977C26.9354 10.8555 27.0915 10.8675 27.1036 10.8245C27.1234 10.7541 25.0919 10.0745 24.7821 10.0479C24.7117 10.0419 24.6144 10.0877 24.566 10.1498C24.5175 10.2118 24.2108 10.2738 23.8843 10.2875C23.5578 10.3012 23.2541 10.3341 23.2094 10.3605C23.1646 10.387 22.608 10.4053 21.9725 10.4011C21.3369 10.397 20.7138 10.4556 20.5878 10.5313C20.4618 10.6072 19.9266 10.7654 19.3986 10.8833C18.4999 11.0838 18.3347 11.159 16.8145 12.0587C15.1619 13.0365 14.6073 13.485 13.8397 14.4631C13.6843 14.661 13.3851 14.9408 13.1748 15.0849C12.7772 15.3573 12.78 15.3493 13.3406 14.6134C13.7859 14.0291 13.4975 14.1513 12.9588 14.7753C12.3893 15.435 11.4403 16.9102 11.5001 17.0428C11.561 17.1776 11.5919 17.1404 12.1581 16.2516C12.4475 15.7973 12.7066 15.4338 12.734 15.4437C12.7613 15.4536 12.56 15.823 12.2866 16.2647C12.0132 16.7063 11.6701 17.3024 11.5243 17.5892C11.3784 17.876 11.191 18.137 11.1079 18.1692C11.0247 18.2013 10.9363 18.3383 10.9115 18.4734C10.8723 18.687 10.8786 18.6978 10.9596 18.5561C11.0152 18.4589 11.0399 18.4472 11.0207 18.5273C11.0031 18.6012 10.9435 18.6909 10.8883 18.7267C10.8331 18.7627 10.8306 18.8495 10.8828 18.92C10.9351 18.9905 10.9353 19.0328 10.8833 19.014C10.7062 18.9499 9.82445 21.3881 9.6608 22.3944C9.40466 23.9694 9.39387 26.3559 9.63695 27.6688C9.94811 29.3493 10.2558 30.3243 10.976 31.9116C11.5987 33.2839 11.7673 33.5749 12.4557 34.4649C12.883 35.0173 13.3697 35.6006 13.5374 35.7611C13.705 35.9216 13.849 36.1253 13.8575 36.2138C13.8924 36.579 16.0052 38.2704 17.3454 39.006C19.9692 40.4463 23.6208 40.7061 26.6624 39.669C28.3299 39.1004 29.2113 38.6621 30.2809 37.8699C31.9398 36.641 33.0479 35.5495 33.7474 34.4552C33.9213 34.1832 34.0975 33.9729 34.139 33.9879C34.1804 34.0029 34.1683 34.0425 34.112 34.0758C34.0556 34.1091 34.036 34.1949 34.0683 34.2665C34.1006 34.3381 33.9844 34.6074 33.81 34.865C33.6357 35.1225 33.4106 35.4741 33.31 35.6462C33.2093 35.8183 32.9462 36.178 32.7252 36.4454C32.5042 36.7128 32.32 36.9812 32.3158 37.042C32.3115 37.1027 31.9564 37.4804 31.5266 37.8813C30.5378 38.8036 28.4064 40.1976 27.234 40.6889C26.1264 41.153 26.0799 41.1692 25.9717 41.1301C25.9209 41.1117 25.7673 41.1628 25.6305 41.2437C25.4936 41.3245 25.3648 41.3532 25.3441 41.3074C25.3234 41.2615 25.2478 41.2586 25.1762 41.301C25.1046 41.3433 24.8839 41.381 24.6857 41.3848C24.4875 41.3885 23.8877 41.4176 23.3528 41.4493C22.8179 41.481 22.138 41.4815 21.8419 41.4503C21.5458 41.4192 21.2555 41.4221 21.1967 41.4568C21.0339 41.5531 19.3285 41.2176 18.3938 40.9054C17.0172 40.4455 14.507 39.0841 14.5769 38.8352C14.5865 38.8009 14.764 38.9001 14.9713 39.0555C15.1786 39.211 15.3695 39.3256 15.3955 39.3103C15.4214 39.2949 15.2555 39.1506 15.0268 38.9896C14.7981 38.8286 14.575 38.7321 14.531 38.7752C14.4871 38.8183 14.2509 38.6889 14.0063 38.4877C13.5282 38.0945 13.3246 37.8267 13.761 38.1651C14.1949 38.5015 14.0941 38.2677 13.6157 37.8279C13.1818 37.429 13.1743 37.4272 13.3263 37.7576C13.4122 37.9441 13.4871 38.2031 13.4929 38.3331C13.5003 38.5023 13.5232 38.5317 13.5733 38.4365C13.6358 38.318 13.7386 38.4042 13.8055 38.6313C13.8182 38.6743 14.2274 38.9904 14.7149 39.3337C16.5128 40.5996 18.3658 41.3808 20.4721 41.7608C21.0142 41.8586 21.5439 41.9632 21.6492 41.9933C21.7546 42.0234 22.3004 42.0682 22.8621 42.0929C23.9286 42.1398 24.8918 42.0282 25.9804 41.7314C26.9841 41.4577 27.2903 41.4139 27.2813 41.5453C27.2767 41.6121 27.2433 41.6777 27.2071 41.6912C27.1708 41.7046 26.7886 41.8217 26.3577 41.9513ZM12.3647 36.5973C11.5297 35.6159 10.4631 33.9683 9.76707 32.5847C9.36994 31.7954 9.03697 31.1782 9.02713 31.2132C8.9905 31.3437 10.0345 33.5237 10.4816 34.2505C11.1691 35.368 12.6547 37.2476 12.706 37.0649C12.7137 37.0374 12.5601 36.827 12.3647 36.5973ZM9.74457 36.1561C9.68917 36.1018 9.69465 36.1698 9.75672 36.3073C9.8188 36.4449 9.86413 36.4894 9.85745 36.4062C9.85077 36.323 9.79997 36.2105 9.74457 36.1561ZM9.48038 35.4338C9.39713 35.4037 9.41454 35.4766 9.52964 35.64C9.66161 35.8272 9.69504 35.8393 9.65856 35.6866C9.63146 35.5733 9.55128 35.4595 9.48038 35.4338ZM9.25257 35.0609C9.18852 34.9977 9.17841 35.0337 9.2268 35.1527C9.27058 35.2604 9.318 35.3072 9.33218 35.2568C9.34636 35.2063 9.31053 35.1181 9.25257 35.0609ZM7.37646 30.7446C7.16131 30.1394 7.14774 30.1193 7.25404 30.5635C7.31979 30.8383 7.71358 31.8601 8.12912 32.8342L8.88465 34.6052L8.25154 33.0152C7.90333 32.1408 7.50955 31.119 7.37646 30.7446ZM26.9729 10.2902C26.9182 10.2528 26.834 10.2456 26.7857 10.2741C26.7374 10.3027 26.7426 10.3566 26.7973 10.394C26.8519 10.4314 26.9362 10.4386 26.9845 10.41C27.0328 10.3815 27.0276 10.3275 26.9729 10.2902ZM23.6826 9.77759C23.6728 9.75598 23.5914 9.74772 23.5017 9.75926C23.4081 9.77131 23.3805 9.80891 23.4368 9.84742C23.5313 9.91199 23.7192 9.85861 23.6826 9.77759ZM16.9262 8.23965C16.6653 8.33954 16.2553 8.54004 16.0149 8.6852C15.6053 8.93253 15.5993 8.94235 15.9184 8.84116C16.1058 8.78177 16.5158 8.58127 16.8297 8.3956L17.4003 8.05803L16.9262 8.23965ZM19.0093 6.69374C18.7834 6.73541 18.5195 6.8162 18.4229 6.8733C18.3263 6.93039 18.4321 6.94303 18.658 6.90136C18.884 6.8597 19.1478 6.7789 19.2444 6.72181C19.341 6.66471 19.2352 6.65208 19.0093 6.69374ZM14.8543 9.1328C14.7814 9.14072 14.6826 9.19912 14.6348 9.26256C14.587 9.32601 14.6466 9.3195 14.7673 9.24814C14.8881 9.17677 14.9272 9.12485 14.8543 9.1328ZM13.8126 9.37137C13.8614 9.23235 13.2255 9.68932 13.1476 9.84916C13.0871 9.9734 13.1711 9.93691 13.4266 9.72801C13.6277 9.56361 13.8014 9.40312 13.8126 9.37137ZM18.0148 7.0119C17.943 7.01962 17.8237 7.08806 17.7497 7.1638C17.6757 7.23966 17.7345 7.23334 17.8803 7.14973C18.026 7.066 18.0866 7.00416 18.0148 7.0119ZM17.1398 7.35764C16.9037 7.44436 16.6909 7.57728 16.667 7.65306C16.6414 7.73394 16.8186 7.66886 17.0963 7.49539L17.5692 7.19998L17.1398 7.35764ZM14.7152 8.70131C14.572 8.75691 14.3547 8.88537 14.2322 8.98679C14.1098 9.08821 14.2269 9.04273 14.4925 8.88573C14.7581 8.72872 14.8583 8.64573 14.7152 8.70131ZM15.5945 8.18494C15.4986 8.20973 15.3603 8.29148 15.2871 8.36661C15.214 8.44173 15.2924 8.42143 15.4614 8.32152C15.6305 8.22161 15.6903 8.16015 15.5945 8.18494ZM17.8428 42.925C17.8165 42.8667 17.8471 42.8235 17.9107 42.829C17.9744 42.8344 18.0354 42.8587 18.0463 42.883C18.0573 42.9073 18.0267 42.9505 17.9784 42.979C17.9301 43.0076 17.8691 42.9833 17.8428 42.925ZM17.5676 42.4932C16.7469 42.1777 15.5892 41.6054 14.8476 41.1486C14.0678 40.6683 12.4672 39.3999 11.8295 38.757C11.5027 38.4275 11.3128 38.2688 11.4076 38.4045C11.5023 38.5401 11.563 38.6611 11.5424 38.6733C11.4835 38.7081 10.5853 37.6919 10.5165 37.5126C10.4826 37.4242 10.6412 37.5554 10.8689 37.8041C11.0967 38.0529 11.2079 38.1439 11.1162 38.0065C11.0245 37.869 10.8736 37.6446 10.7809 37.5077C10.6882 37.3708 10.838 37.4961 11.1137 37.7862C13.4961 40.2926 15.0729 41.4034 17.6426 42.3855C18.0901 42.5566 18.4244 42.7154 18.3854 42.7385C18.3464 42.7615 17.9784 42.6512 17.5676 42.4932ZM16.9009 42.5788C16.2397 42.3269 15.3467 41.8677 15.6484 41.9347C15.9511 42.0019 17.5642 42.717 17.4995 42.7553C17.4703 42.7725 17.2009 42.6931 16.9009 42.5788ZM16.2659 38.1304C16.0467 38.0143 15.8821 37.8821 15.9252 37.8566C15.9466 37.844 16.0797 37.9078 16.2209 37.9986C16.4851 38.1685 16.5176 38.2638 16.2659 38.1304ZM10.4384 37.0977C10.39 36.9787 10.4001 36.9426 10.4641 37.0059C10.5221 37.0631 10.5579 37.1512 10.5437 37.2017C10.5296 37.2522 10.4821 37.2054 10.4384 37.0977ZM34.1006 16.8061C34.011 16.7628 33.6777 16.26 33.3598 15.6886C33.042 15.1172 32.6997 14.5273 32.5992 14.3776C32.4269 14.1209 32.428 14.1161 32.6188 14.2936C32.7301 14.3971 32.966 14.7424 33.1429 15.061C33.3198 15.3795 33.6526 15.8909 33.8824 16.1973C34.3181 16.7786 34.3755 16.9387 34.1006 16.8061ZM9.89266 27.5173C9.8181 27.3665 9.73483 26.4093 9.79828 26.4323C9.82391 26.4416 9.86906 26.7166 9.89859 27.0435C9.92813 27.3705 9.92545 27.5837 9.89266 27.5173ZM24.7666 10.4855C24.5857 10.3914 24.5872 10.386 24.7827 10.4281C24.9879 10.4724 25.0715 10.527 24.9992 10.5697C24.981 10.5805 24.8763 10.5426 24.7666 10.4855ZM25.8728 6.86624C25.4558 6.75506 24.9208 6.6804 24.684 6.70034C24.3089 6.73194 23.7736 6.6055 23.9188 6.51963C24.0136 6.46363 24.7874 6.44713 25.0308 6.49592C25.3925 6.56838 26.7242 7.01029 26.6745 7.04132C26.6507 7.05635 26.2899 6.97743 25.8728 6.86624ZM24.2065 6.98813C24.1124 6.97894 24.0465 6.93187 24.06 6.88352C24.0736 6.83518 24.1657 6.83468 24.2646 6.88243C24.4698 6.98144 24.4529 7.01218 24.2065 6.98813ZM23.6791 6.21084C23.448 6.15821 23.4482 6.15572 23.6852 6.14831C23.821 6.14407 23.9415 6.16152 23.953 6.18709C23.9875 6.26364 23.932 6.26846 23.6791 6.21084ZM22.064 6.78964C21.9347 6.76445 21.8419 6.69796 21.8576 6.6419C21.8734 6.58585 21.9868 6.56797 22.1095 6.60187C22.2323 6.63592 22.4033 6.65357 22.4894 6.6411C22.6005 6.62501 22.5956 6.64995 22.4725 6.72694C22.3771 6.7867 22.1933 6.81484 22.064 6.78964ZM21.1739 6.80717C20.8987 6.81652 20.8854 6.80704 21.092 6.74884C21.2277 6.71062 21.3943 6.69712 21.4622 6.71883C21.6307 6.7727 21.5611 6.79401 21.1739 6.80717ZM21.5018 5.80839C21.2652 5.82651 20.8197 5.91892 20.5118 6.01375C19.9221 6.19536 19.6167 6.14811 19.9825 5.93186C20.1836 5.81301 22.0119 5.58317 22.0519 5.67172C22.0829 5.74046 21.9466 5.77434 21.5018 5.80839Z" fill="white"/>
<path d="M32.0037 22.7275C31.8502 22.8521 31.7165 23.0129 31.6025 23.2099C31.2903 23.7458 30.9781 24.4488 30.6659 25.3187L29.546 28.6276C29.5121 28.713 29.4917 28.8062 29.4849 28.9072C29.4714 29.1247 29.5257 29.3111 29.6478 29.4665C29.7768 29.6218 29.9397 29.6995 30.1365 29.6995C30.3469 29.6995 30.503 29.649 30.6048 29.548C30.7134 29.4393 30.8017 29.3033 30.8695 29.1402L31.8367 26.111C31.8897 25.9554 32.277 25.8518 32.3284 25.7055C32.2892 25.6397 31.9137 25.5148 31.8788 25.4245C31.5466 25.7055 31.7596 24.9292 31.7861 24.6333C31.5938 24.1616 31.7007 23.6618 31.805 23.3096C31.8618 23.118 31.9348 22.9171 32.0024 22.7312L32.0037 22.7275Z" fill="white"/>
<path d="M33.4113 26.9731H34.3106L34.0459 26.111C33.9373 25.7925 33.8287 25.4935 33.7202 25.2138C33.6183 24.9265 32.9642 25.2138 33.3638 24.4332C33.2417 24.2002 33.1025 24.0759 32.9464 24.0604C32.8741 24.0673 32.8051 24.0956 32.7395 24.1454C32.7248 24.1206 32.6913 24.0338 32.7923 23.6927C32.837 23.5421 32.895 23.3821 32.9642 23.1915L32.9948 23.1071C33.2667 22.9069 32.5206 22.6144 32.5891 22.371C33.0407 22.448 34.024 22.7671 34.2801 23.2099C34.5923 23.7303 34.9045 24.4332 35.2167 25.3187L36.3366 28.6276C36.3706 28.713 36.3909 28.8062 36.3977 28.9072C36.4113 29.1247 36.3536 29.3111 36.2246 29.4665C36.1025 29.6218 35.943 29.6995 35.7461 29.6995C35.5222 29.6995 35.3559 29.649 35.2473 29.548C35.1455 29.4393 35.0606 29.3033 34.9928 29.1402L34.7993 28.5344H33.0079C33.0435 28.3102 33.1122 28.0888 33.2667 27.853C33.3211 27.77 33.3557 27.6721 33.3669 27.5691C33.3905 27.3528 33.4051 27.155 33.4113 26.9731Z" fill="white"/>
<path d="M32.5891 26.8986C32.5558 26.9257 32.2948 27.1712 32.2643 27.2062C32.1353 27.3537 32.0709 27.5363 32.0709 27.7538C32.0709 27.8017 32.0742 27.8479 32.0808 27.8925C32.1409 27.6946 32.4679 27.705 32.5891 27.4951C32.5943 27.4381 32.5856 26.9505 32.5891 26.8986Z" fill="white"/>
<path d="M20.31 22.371C20.5476 22.371 20.7783 22.4176 21.0023 22.5108C21.2331 22.604 21.4537 22.7399 21.6641 22.9186C21.698 22.9574 21.7353 22.9963 21.776 23.0351C21.81 22.9963 21.8473 22.9574 21.888 22.9186C22.0984 22.7399 22.3156 22.604 22.5396 22.5108C22.7704 22.4176 23.0011 22.371 23.2319 22.371C23.4695 22.371 23.7002 22.4176 23.9242 22.5108C24.155 22.604 24.3721 22.7438 24.5758 22.9302C24.7862 23.1089 24.9694 23.3497 25.1255 23.6526C25.2884 23.9555 25.3699 24.3167 25.3699 24.7362V28.9422C25.3291 29.4082 24.6979 27.4951 24.6979 29.6995C24.5096 28.3899 24.3416 29.6296 24.1991 29.4898C24.0633 29.3422 23.9955 29.1597 23.9955 28.9422V24.8294C24.1991 22.5108 23.9649 24.4876 23.9038 24.3633C23.8427 24.2313 23.7749 24.1303 23.7002 24.0604C23.6256 23.9827 23.5475 23.9284 23.4661 23.8973C23.3846 23.8584 23.3032 23.839 23.2217 23.839C23.1403 23.839 23.0588 23.8584 22.9774 23.8973C22.9027 23.9284 22.8281 23.9827 22.7534 24.0604C22.6787 24.1303 22.7534 22.4378 22.5498 24.3633C22.4887 24.4876 22.4548 24.6429 22.448 24.8294V28.9422C22.4073 29.4082 21.9033 28.3899 21.776 29.6995C21.586 29.6995 21.4197 29.6296 21.2772 29.4898C21.1414 29.3422 21.0736 29.1597 21.0736 28.9422V24.8294C21.0736 24.6429 21.1429 22.9302 20.9819 24.3633C20.8608 23.3194 20.853 24.1303 20.7783 24.0604C20.7037 23.9827 20.6256 23.9284 20.5442 23.8973C20.4627 23.8584 20.3813 23.839 20.2998 23.839C20.2184 23.839 20.1369 23.8584 20.0555 23.8973C19.9808 23.9284 19.9062 23.9827 19.8315 24.0604C19.7569 24.1303 19.689 24.2313 19.6279 24.3633C19.5668 24.4876 19.5329 24.6429 19.5261 24.8294V28.9422C19.4922 29.4082 19.2716 29.6606 18.8643 29.6995C18.6743 29.6995 18.508 29.6296 18.3655 29.4898C18.8643 26.8104 18.1619 30.1795 18.1619 28.9422V24.7362C18.1754 24.3167 18.2603 23.9555 18.4164 23.6526C18.5725 23.3497 18.7557 23.1089 18.9661 22.9302C19.1766 22.7438 19.3937 22.604 19.6177 22.5108C19.8485 22.4176 20.0792 22.371 20.31 22.371Z" fill="white"/>
<path d="M41.2458 29.7228C41.653 29.6839 41.877 29.4315 41.9177 28.9655V24.5497C41.9177 24.3556 41.5207 23.4895 42.1824 24.2468C42.8442 25.0041 45.7559 24.2468 45.7559 24.2468C45.8848 24.2546 45.99 24.2895 46.0715 24.3517C46.1597 24.406 46.2242 24.4721 46.2649 24.5497C46.3056 24.6196 46.663 23.8383 46.663 23.9159C46.663 23.9936 46.3056 24.9265 46.2649 25.0041C46.2242 25.074 46.1597 25.1401 46.0715 25.2022C45.99 25.2566 45.8848 25.2876 45.7559 25.2954H43.0682C42.8781 25.2954 43.0682 26.302 43.0682 26.302C43.0682 26.302 42.7536 25.7055 42.386 26.076C42.386 26.1615 42.4471 26.5537 42.5693 27.2528C42.6575 27.8819 42.9053 28.4256 43.3125 28.8839C43.7197 29.3422 44.1745 29.5674 44.6767 29.5597H47.059C47.2423 29.5519 47.395 29.4781 47.5172 29.3383C47.6461 29.1907 46.6935 27.6268 47.7208 28.8024C48.748 29.9779 49.0646 30.0024 47.5273 28.2431C45.99 26.4838 47.2491 28.0062 47.059 27.9984H44.86C44.6088 27.9984 44.4018 27.9052 44.2389 27.7188C44.0693 27.5324 43.9573 27.245 43.903 26.8566H45.6948C46.1699 26.8411 46.5602 26.7168 46.8656 26.4838C47.1778 26.2508 47.3984 25.9867 47.5273 25.6915C47.6631 25.3886 47.731 25.0818 47.731 24.7711C47.731 24.4682 47.6631 24.1691 47.5273 23.874C47.3916 23.5711 47.171 23.3031 46.8656 23.0701C46.5602 22.837 46.1699 22.7128 45.6948 22.6972H45.6337C45.593 22.6895 45.5523 22.6856 45.5115 22.6856C45.5115 22.6856 41.2458 23.6177 41.2458 22.6856C41.2458 21.7535 41.7111 21.8152 40.7571 22.9069C39.8032 23.9986 40.5501 23.2254 40.5433 23.4429V28.9655C40.5433 29.183 40.6112 29.3655 40.7469 29.5131C40.8895 29.6529 41.0558 29.7228 41.2458 29.7228Z" fill="white"/>
</svg>
