<?xml version="1.0" encoding="UTF-8" standalone="no"?>
<!-- Created with Inkscape (http://www.inkscape.org/) -->

<svg
   width="54.688789mm"
   height="53.83688mm"
   viewBox="0 0 54.688789 53.83688"
   version="1.1"
   id="svg1"
   xml:space="preserve"
   xmlns:inkscape="http://www.inkscape.org/namespaces/inkscape"
   xmlns:sodipodi="http://sodipodi.sourceforge.net/DTD/sodipodi-0.dtd"
   xmlns="http://www.w3.org/2000/svg"
   xmlns:svg="http://www.w3.org/2000/svg"><sodipodi:namedview
     id="namedview1"
     pagecolor="#ffffff"
     bordercolor="#000000"
     borderopacity="0.25"
     inkscape:showpageshadow="2"
     inkscape:pageopacity="0.0"
     inkscape:pagecheckerboard="0"
     inkscape:deskcolor="#d1d1d1"
     inkscape:document-units="mm" /><defs
     id="defs1" /><g
     inkscape:label="Capa 1"
     inkscape:groupmode="layer"
     id="layer1"
     transform="translate(-62.160959,-163.32397)"><path
       style="fill:#000000"
       d="m 83.275119,217.0939 -8.355483,-0.13229 -0.973522,-0.74294 c -1.84405,-1.40726 -2.049019,-2.19161 -1.966923,-7.52671 l 0.07224,-4.69494 h 17.330208 17.330211 l 0.0715,4.89479 c 0.0677,4.63996 0.0402,4.95647 -0.52917,6.07937 -0.99794,1.96816 -1.30709,2.04753 -8.405839,2.15813 -3.419735,0.0533 -9.977671,0.0374 -14.573187,-0.0354 z m 20.153491,-1.85437 c 1.3877,-0.38549 1.56345,-1.01122 1.56345,-5.56641 v -3.95631 H 89.249352 73.506644 l 0.0015,3.10886 c 0.0017,3.61427 0.247447,4.72573 1.25909,5.69495 0.703352,0.67385 0.875834,0.70751 4.03657,0.78765 8.545069,0.21665 23.750246,0.1742 24.624826,-0.0687 z M 72.224664,202.45885 c -0.163571,-0.19709 -0.320773,-1.7565 -0.363126,-3.60212 l -0.07469,-3.25457 -1.518192,-0.46931 c -6.081782,-1.88003 -9.274679,-8.15415 -7.715264,-15.16068 0.9269,-4.16461 3.231949,-7.19489 6.39007,-8.40054 1.610374,-0.61478 4.765135,-0.82588 6.815263,-0.45604 l 1.061459,0.19149 0.759335,-1.35082 c 0.980638,-1.74451 3.383215,-4.12856 5.081915,-5.04272 3.928568,-2.11416 9.299085,-2.1199 13.45416,-0.0144 1.630978,0.82648 4.620956,3.76352 5.413766,5.3179 l 0.58403,1.14505 1.1086,-0.21901 c 2.08733,-0.41237 5.21641,-0.21003 6.92749,0.44796 3.03294,1.16629 5.81873,4.84166 6.51352,8.59344 0.39394,2.12728 0.1414,5.72113 -0.53918,7.67292 -1.10113,3.15782 -3.6726,5.66216 -7.09687,6.91159 l -1.91823,0.69992 v 3.35122 c 0,2.25373 -0.10398,3.45521 -0.3175,3.66873 -0.4855,0.4855 -34.162988,0.45622 -34.56656,-0.03 z m 33.090446,-5.00387 0.0738,-3.49933 1.61248,-0.42124 c 3.39549,-0.88705 5.86463,-2.83323 7.16536,-5.64776 0.69375,-1.50114 0.74716,-1.85312 0.74716,-4.924 0,-3.18206 -0.0319,-3.37241 -0.84347,-5.02709 -1.01334,-2.06612 -2.69451,-3.84935 -4.31591,-4.57791 -1.64158,-0.73763 -4.46285,-0.88162 -6.55798,-0.33472 -0.91475,0.23878 -1.76659,0.37024 -1.89297,0.29213 -0.12639,-0.0781 -0.61084,-0.81719 -1.07657,-1.64242 -1.037194,-1.8378 -3.128073,-4.08905 -4.597655,-4.95028 -1.950743,-1.14321 -3.914694,-1.55482 -6.892652,-1.44459 -2.408733,0.0892 -2.882181,0.19282 -4.484963,0.98186 -2.192717,1.07947 -4.203751,3.04482 -5.464114,5.33998 -1.050363,1.91274 -0.919873,1.87103 -4.045817,1.29309 -4.226715,-0.78145 -7.68677,0.91095 -9.463429,4.62879 -1.614439,3.37839 -1.738239,7.7431 -0.306411,10.80285 1.293197,2.7635 4.077685,4.92578 6.930687,5.38199 1.764868,0.28221 1.868541,0.50925 1.868541,4.09188 v 3.1561 h 15.735029 15.735034 z"
       id="path1"
       inkscape:export-filename="recipeSvg.svg"
       inkscape:export-xdpi="96"
       inkscape:export-ydpi="96" /></g></svg>
